o convex_0
# 平顶化: x/y 相对 bbox 中心 (0.0009, -0.0035) 截到 ±0.0330; z <= 0.0130 拍平到 -0.0010+底穹 0.0025·(r/r_max)²
v 0.000859 -0.003496 0.072061
v 0.005861 -0.003496 0.071749
v 0.005818 -0.002843 0.071749
v 0.005691 -0.002201 0.071749
v 0.005480 -0.001582 0.071749
v 0.005191 -0.000995 0.071749
v 0.004827 -0.000451 0.071749
v 0.004396 0.000041 0.071749
v 0.003904 0.000472 0.071749
v 0.003360 0.000836 0.071749
v 0.002773 0.001125 0.071749
v 0.002154 0.001336 0.071749
v 0.001512 0.001463 0.071749
v 0.000859 0.001506 0.071749
v 0.000206 0.001463 0.071749
v -0.000436 0.001336 0.071749
v -0.001055 0.001125 0.071749
v -0.001642 0.000836 0.071749
v -0.002186 0.000472 0.071749
v -0.002678 0.000041 0.071749
v -0.003109 -0.000451 0.071749
v -0.003473 -0.000995 0.071749
v -0.003762 -0.001582 0.071749
v -0.003973 -0.002201 0.071749
v -0.004100 -0.002843 0.071749
v -0.004143 -0.003496 0.071749
v -0.004100 -0.004149 0.071749
v -0.003973 -0.004791 0.071749
v -0.003762 -0.005410 0.071749
v -0.003473 -0.005997 0.071749
v -0.003109 -0.006541 0.071749
v -0.002678 -0.007033 0.071749
v -0.002186 -0.007464 0.071749
v -0.001642 -0.007828 0.071749
v -0.001055 -0.008117 0.071749
v -0.000436 -0.008328 0.071749
v 0.000206 -0.008455 0.071749
v 0.000859 -0.008498 0.071749
v 0.001512 -0.008455 0.071749
v 0.002154 -0.008328 0.071749
v 0.002773 -0.008117 0.071749
v 0.003360 -0.007828 0.071749
v 0.003904 -0.007464 0.071749
v 0.004396 -0.007033 0.071749
v 0.004827 -0.006541 0.071749
v 0.005191 -0.005997 0.071749
v 0.005480 -0.005410 0.071749
v 0.005691 -0.004791 0.071749
v 0.005818 -0.004149 0.071749
v 0.010778 -0.003496 0.070816
v 0.010693 -0.002201 0.070816
v 0.010440 -0.000929 0.070816
v 0.010023 0.000300 0.070816
v 0.009449 0.001463 0.070816
v 0.008728 0.002542 0.070816
v 0.007873 0.003518 0.070816
v 0.006897 0.004373 0.070816
v 0.005818 0.005094 0.070816
v 0.004655 0.005668 0.070816
v 0.003426 0.006085 0.070816
v 0.002154 0.006338 0.070816
v 0.000859 0.006423 0.070816
v -0.000436 0.006338 0.070816
v -0.001708 0.006085 0.070816
v -0.002937 0.005668 0.070816
v -0.004100 0.005094 0.070816
v -0.005179 0.004373 0.070816
v -0.006155 0.003518 0.070816
v -0.007010 0.002542 0.070816
v -0.007731 0.001463 0.070816
v -0.008305 0.000300 0.070816
v -0.008722 -0.000929 0.070816
v -0.008975 -0.002201 0.070816
v -0.009060 -0.003496 0.070816
v -0.008975 -0.004791 0.070816
v -0.008722 -0.006063 0.070816
v -0.008305 -0.007292 0.070816
v -0.007731 -0.008455 0.070816
v -0.007010 -0.009534 0.070816
v -0.006155 -0.010510 0.070816
v -0.005179 -0.011365 0.070816
v -0.004100 -0.012086 0.070816
v -0.002937 -0.012660 0.070816
v -0.001708 -0.013077 0.070816
v -0.000436 -0.013330 0.070816
v 0.000859 -0.013415 0.070816
v 0.002154 -0.013330 0.070816
v 0.003426 -0.013077 0.070816
v 0.004655 -0.012660 0.070816
v 0.005818 -0.012086 0.070816
v 0.006897 -0.011365 0.070816
v 0.007873 -0.010510 0.070816
v 0.008728 -0.009534 0.070816
v 0.009449 -0.008455 0.070816
v 0.010023 -0.007292 0.070816
v 0.010440 -0.006063 0.070816
v 0.010693 -0.004791 0.070816
v 0.015525 -0.003496 0.069281
v 0.015399 -0.001582 0.069281
v 0.015025 0.000300 0.069281
v 0.014408 0.002116 0.069281
v 0.013560 0.003837 0.069281
v 0.012494 0.005432 0.069281
v 0.011229 0.006874 0.069281
v 0.009787 0.008139 0.069281
v 0.008192 0.009205 0.069281
v 0.006471 0.010053 0.069281
v 0.004655 0.010670 0.069281
v 0.002773 0.011044 0.069281
v 0.000859 0.011170 0.069281
v -0.001055 0.011044 0.069281
v -0.002937 0.010670 0.069281
v -0.004753 0.010053 0.069281
v -0.006474 0.009205 0.069281
v -0.008069 0.008139 0.069281
v -0.009511 0.006874 0.069281
v -0.010776 0.005432 0.069281
v -0.011842 0.003837 0.069281
v -0.012690 0.002116 0.069281
v -0.013307 0.000300 0.069281
v -0.013681 -0.001582 0.069281
v -0.013807 -0.003496 0.069281
v -0.013681 -0.005410 0.069281
v -0.013307 -0.007292 0.069281
v -0.012690 -0.009108 0.069281
v -0.011842 -0.010829 0.069281
v -0.010776 -0.012424 0.069281
v -0.009511 -0.013866 0.069281
v -0.008069 -0.015131 0.069281
v -0.006474 -0.016197 0.069281
v -0.004753 -0.017045 0.069281
v -0.002937 -0.017662 0.069281
v -0.001055 -0.018036 0.069281
v 0.000859 -0.018162 0.069281
v 0.002773 -0.018036 0.069281
v 0.004655 -0.017662 0.069281
v 0.006471 -0.017045 0.069281
v 0.008192 -0.016197 0.069281
v 0.009787 -0.015131 0.069281
v 0.011229 -0.013866 0.069281
v 0.012494 -0.012424 0.069281
v 0.013560 -0.010829 0.069281
v 0.014408 -0.009108 0.069281
v 0.015025 -0.007292 0.069281
v 0.015399 -0.005410 0.069281
v 0.020020 -0.003496 0.067167
v 0.019857 -0.000995 0.067167
v 0.019368 0.001463 0.067167
v 0.018562 0.003837 0.067167
v 0.017453 0.006085 0.067167
v 0.016061 0.008169 0.067167
v 0.014408 0.010053 0.067167
v 0.012524 0.011706 0.067167
v 0.010440 0.013098 0.067167
v 0.008192 0.014207 0.067167
v 0.005818 0.015013 0.067167
v 0.003360 0.015502 0.067167
v 0.000859 0.015665 0.067167
v -0.001642 0.015502 0.067167
v -0.004100 0.015013 0.067167
v -0.006474 0.014207 0.067167
v -0.008722 0.013098 0.067167
v -0.010806 0.011706 0.067167
v -0.012690 0.010053 0.067167
v -0.014343 0.008169 0.067167
v -0.015735 0.006085 0.067167
v -0.016844 0.003837 0.067167
v -0.017650 0.001463 0.067167
v -0.018139 -0.000995 0.067167
v -0.018302 -0.003496 0.067167
v -0.018139 -0.005997 0.067167
v -0.017650 -0.008455 0.067167
v -0.016844 -0.010829 0.067167
v -0.015735 -0.013077 0.067167
v -0.014343 -0.015161 0.067167
v -0.012690 -0.017045 0.067167
v -0.010806 -0.018698 0.067167
v -0.008722 -0.020090 0.067167
v -0.006474 -0.021199 0.067167
v -0.004100 -0.022005 0.067167
v -0.001642 -0.022494 0.067167
v 0.000859 -0.022657 0.067167
v 0.003360 -0.022494 0.067167
v 0.005818 -0.022005 0.067167
v 0.008192 -0.021199 0.067167
v 0.010440 -0.020090 0.067167
v 0.012524 -0.018698 0.067167
v 0.014408 -0.017045 0.067167
v 0.016061 -0.015161 0.067167
v 0.017453 -0.013077 0.067167
v 0.018562 -0.010829 0.067167
v 0.019368 -0.008455 0.067167
v 0.019857 -0.005997 0.067167
v 0.024189 -0.003496 0.064513
v 0.023989 -0.000451 0.064513
v 0.023394 0.002542 0.064513
v 0.022413 0.005432 0.064513
v 0.021063 0.008169 0.064513
v 0.019368 0.010706 0.064513
v 0.017355 0.013000 0.064513
v 0.015061 0.015013 0.064513
v 0.012524 0.016708 0.064513
v 0.009787 0.018058 0.064513
v 0.006897 0.019039 0.064513
v 0.003904 0.019634 0.064513
v 0.000859 0.019834 0.064513
v -0.002186 0.019634 0.064513
v -0.005179 0.019039 0.064513
v -0.008069 0.018058 0.064513
v -0.010806 0.016708 0.064513
v -0.013343 0.015013 0.064513
v -0.015637 0.013000 0.064513
v -0.017650 0.010706 0.064513
v -0.019345 0.008169 0.064513
v -0.020695 0.005432 0.064513
v -0.021676 0.002542 0.064513
v -0.022271 -0.000451 0.064513
v -0.022471 -0.003496 0.064513
v -0.022271 -0.006541 0.064513
v -0.021676 -0.009534 0.064513
v -0.020695 -0.012424 0.064513
v -0.019345 -0.015161 0.064513
v -0.017650 -0.017698 0.064513
v -0.015637 -0.019992 0.064513
v -0.013343 -0.022005 0.064513
v -0.010806 -0.023700 0.064513
v -0.008069 -0.025050 0.064513
v -0.005179 -0.026031 0.064513
v -0.002186 -0.026626 0.064513
v 0.000859 -0.026826 0.064513
v 0.003904 -0.026626 0.064513
v 0.006897 -0.026031 0.064513
v 0.009787 -0.025050 0.064513
v 0.012524 -0.023700 0.064513
v 0.015061 -0.022005 0.064513
v 0.017355 -0.019992 0.064513
v 0.019368 -0.017698 0.064513
v 0.021063 -0.015161 0.064513
v 0.022413 -0.012424 0.064513
v 0.023394 -0.009534 0.064513
v 0.023989 -0.006541 0.064513
v 0.027957 -0.003496 0.061363
v 0.027726 0.000041 0.061363
v 0.027034 0.003518 0.061363
v 0.025895 0.006874 0.061363
v 0.024327 0.010053 0.061363
v 0.022358 0.013000 0.061363
v 0.020021 0.015665 0.061363
v 0.017355 0.018003 0.061363
v 0.014408 0.019972 0.061363
v 0.011229 0.021540 0.061363
v 0.007873 0.022679 0.061363
v 0.004396 0.023371 0.061363
v 0.000859 0.023602 0.061363
v -0.002678 0.023371 0.061363
v -0.006155 0.022679 0.061363
v -0.009511 0.021540 0.061363
v -0.012690 0.019972 0.061363
v -0.015637 0.018003 0.061363
v -0.018302 0.015665 0.061363
v -0.020640 0.013000 0.061363
v -0.022609 0.010053 0.061363
v -0.024177 0.006874 0.061363
v -0.025316 0.003518 0.061363
v -0.026008 0.000041 0.061363
v -0.026239 -0.003496 0.061363
v -0.026008 -0.007033 0.061363
v -0.025316 -0.010510 0.061363
v -0.024177 -0.013866 0.061363
v -0.022609 -0.017045 0.061363
v -0.020640 -0.019992 0.061363
v -0.018303 -0.022657 0.061363
v -0.015637 -0.024995 0.061363
v -0.012690 -0.026964 0.061363
v -0.009511 -0.028532 0.061363
v -0.006155 -0.029671 0.061363
v -0.002678 -0.030363 0.061363
v 0.000859 -0.030594 0.061363
v 0.004396 -0.030363 0.061363
v 0.007873 -0.029671 0.061363
v 0.011229 -0.028532 0.061363
v 0.014408 -0.026964 0.061363
v 0.017355 -0.024995 0.061363
v 0.020020 -0.022658 0.061363
v 0.022358 -0.019992 0.061363
v 0.024327 -0.017045 0.061363
v 0.025895 -0.013866 0.061363
v 0.027034 -0.010510 0.061363
v 0.027726 -0.007033 0.061363
v 0.031263 -0.003496 0.057770
v 0.031003 0.000472 0.057770
v 0.030227 0.004373 0.057770
v 0.028948 0.008139 0.057770
v 0.027189 0.011706 0.057770
v 0.024980 0.015013 0.057770
v 0.022358 0.018003 0.057770
v 0.019368 0.020625 0.057770
v 0.016061 0.022834 0.057770
v 0.012494 0.024593 0.057770
v 0.008728 0.025872 0.057770
v 0.004827 0.026648 0.057770
v 0.000859 0.026908 0.057770
v -0.003109 0.026648 0.057770
v -0.007010 0.025872 0.057770
v -0.010776 0.024593 0.057770
v -0.014343 0.022834 0.057770
v -0.017650 0.020625 0.057770
v -0.020640 0.018003 0.057770
v -0.023262 0.015013 0.057770
v -0.025471 0.011706 0.057770
v -0.027230 0.008139 0.057770
v -0.028509 0.004373 0.057770
v -0.029285 0.000472 0.057770
v -0.029545 -0.003496 0.057770
v -0.029285 -0.007464 0.057770
v -0.028509 -0.011365 0.057770
v -0.027230 -0.015131 0.057770
v -0.025471 -0.018698 0.057770
v -0.023262 -0.022005 0.057770
v -0.020640 -0.024995 0.057770
v -0.017650 -0.027617 0.057770
v -0.014343 -0.029826 0.057770
v -0.010776 -0.031585 0.057770
v -0.007010 -0.032864 0.057770
v -0.003109 -0.033640 0.057770
v 0.000859 -0.033900 0.057770
v 0.004827 -0.033640 0.057770
v 0.008728 -0.032864 0.057770
v 0.012494 -0.031585 0.057770
v 0.016061 -0.029826 0.057770
v 0.019368 -0.027617 0.057770
v 0.022358 -0.024995 0.057770
v 0.024980 -0.022005 0.057770
v 0.027189 -0.018698 0.057770
v 0.028948 -0.015131 0.057770
v 0.030227 -0.011365 0.057770
v 0.031003 -0.007464 0.057770
v 0.033859 -0.003496 0.053798
v 0.033764 0.000836 0.053798
v 0.032917 0.005094 0.053798
v 0.031521 0.009205 0.053798
v 0.029601 0.013098 0.053798
v 0.027189 0.016708 0.053798
v 0.024327 0.019972 0.053798
v 0.021063 0.022834 0.053798
v 0.017453 0.025246 0.053798
v 0.013560 0.027166 0.053798
v 0.009449 0.028562 0.053798
v 0.005191 0.029409 0.053798
v 0.000859 0.029504 0.053798
v -0.003473 0.029409 0.053798
v -0.007731 0.028562 0.053798
v -0.011842 0.027166 0.053798
v -0.015735 0.025246 0.053798
v -0.019345 0.022834 0.053798
v -0.022609 0.019972 0.053798
v -0.025471 0.016708 0.053798
v -0.027883 0.013098 0.053798
v -0.029803 0.009205 0.053798
v -0.031199 0.005094 0.053798
v -0.032046 0.000836 0.053798
v -0.032141 -0.003496 0.053798
v -0.032046 -0.007828 0.053798
v -0.031199 -0.012086 0.053798
v -0.029803 -0.016197 0.053798
v -0.027883 -0.020090 0.053798
v -0.025471 -0.023700 0.053798
v -0.022609 -0.026964 0.053798
v -0.019345 -0.029826 0.053798
v -0.015735 -0.032238 0.053798
v -0.011842 -0.034158 0.053798
v -0.007731 -0.035554 0.053798
v -0.003473 -0.036401 0.053798
v 0.000859 -0.036496 0.053798
v 0.005191 -0.036401 0.053798
v 0.009449 -0.035554 0.053798
v 0.013560 -0.034158 0.053798
v 0.017453 -0.032238 0.053798
v 0.021063 -0.029826 0.053798
v 0.024327 -0.026964 0.053798
v 0.027189 -0.023700 0.053798
v 0.029601 -0.020090 0.053798
v 0.031521 -0.016197 0.053798
v 0.032917 -0.012086 0.053798
v 0.033764 -0.007828 0.053798
v 0.033859 -0.003496 0.049513
v 0.033859 0.001125 0.049513
v 0.033859 0.005668 0.049513
v 0.033570 0.010053 0.049513
v 0.031521 0.014207 0.049513
v 0.028948 0.018058 0.049513
v 0.025895 0.021540 0.049513
v 0.022413 0.024593 0.049513
v 0.018562 0.027166 0.049513
v 0.014408 0.029215 0.049513
v 0.010023 0.029504 0.049513
v 0.005480 0.029504 0.049513
v 0.000859 0.029504 0.049513
v -0.003762 0.029504 0.049513
v -0.008305 0.029504 0.049513
v -0.012690 0.029215 0.049513
v -0.016844 0.027166 0.049513
v -0.020695 0.024593 0.049513
v -0.024177 0.021540 0.049513
v -0.027230 0.018058 0.049513
v -0.029803 0.014207 0.049513
v -0.031852 0.010053 0.049513
v -0.032141 0.005668 0.049513
v -0.032141 0.001125 0.049513
v -0.032141 -0.003496 0.049513
v -0.032141 -0.008117 0.049513
v -0.032141 -0.012660 0.049513
v -0.031852 -0.017045 0.049513
v -0.029803 -0.021199 0.049513
v -0.027230 -0.025050 0.049513
v -0.024177 -0.028532 0.049513
v -0.020695 -0.031585 0.049513
v -0.016844 -0.034158 0.049513
v -0.012690 -0.036207 0.049513
v -0.008305 -0.036496 0.049513
v -0.003762 -0.036496 0.049513
v 0.000859 -0.036496 0.049513
v 0.005480 -0.036496 0.049513
v 0.010023 -0.036496 0.049513
v 0.014408 -0.036207 0.049513
v 0.018562 -0.034158 0.049513
v 0.022413 -0.031585 0.049513
v 0.025895 -0.028532 0.049513
v 0.028948 -0.025050 0.049513
v 0.031521 -0.021199 0.049513
v 0.033570 -0.017045 0.049513
v 0.033859 -0.012660 0.049513
v 0.033859 -0.008117 0.049513
v 0.033859 -0.003496 0.044988
v 0.033859 0.001336 0.044988
v 0.033859 0.006085 0.044988
v 0.033859 0.010670 0.044988
v 0.032917 0.015013 0.044988
v 0.030227 0.019039 0.044988
v 0.027034 0.022679 0.044988
v 0.023394 0.025872 0.044988
v 0.019368 0.028562 0.044988
v 0.015025 0.029504 0.044988
v 0.010440 0.029504 0.044988
v 0.005691 0.029504 0.044988
v 0.000859 0.029504 0.044988
v -0.003973 0.029504 0.044988
v -0.008722 0.029504 0.044988
v -0.013307 0.029504 0.044988
v -0.017650 0.028562 0.044988
v -0.021676 0.025872 0.044988
v -0.025316 0.022679 0.044988
v -0.028509 0.019039 0.044988
v -0.031199 0.015013 0.044988
v -0.032141 0.010670 0.044988
v -0.032141 0.006085 0.044988
v -0.032141 0.001336 0.044988
v -0.032141 -0.003496 0.044988
v -0.032141 -0.008328 0.044988
v -0.032141 -0.013077 0.044988
v -0.032141 -0.017662 0.044988
v -0.031199 -0.022005 0.044988
v -0.028509 -0.026031 0.044988
v -0.025316 -0.029671 0.044988
v -0.021676 -0.032864 0.044988
v -0.017650 -0.035554 0.044988
v -0.013307 -0.036496 0.044988
v -0.008722 -0.036496 0.044988
v -0.003973 -0.036496 0.044988
v 0.000859 -0.036496 0.044988
v 0.005691 -0.036496 0.044988
v 0.010440 -0.036496 0.044988
v 0.015025 -0.036496 0.044988
v 0.019368 -0.035554 0.044988
v 0.023394 -0.032864 0.044988
v 0.027034 -0.029671 0.044988
v 0.030227 -0.026031 0.044988
v 0.032917 -0.022005 0.044988
v 0.033859 -0.017662 0.044988
v 0.033859 -0.013077 0.044988
v 0.033859 -0.008328 0.044988
v 0.033859 -0.003496 0.040302
v 0.033859 0.001463 0.040302
v 0.033859 0.006338 0.040302
v 0.033859 0.011044 0.040302
v 0.033764 0.015502 0.040302
v 0.031003 0.019634 0.040302
v 0.027726 0.023371 0.040302
v 0.023989 0.026648 0.040302
v 0.019857 0.029409 0.040302
v 0.015399 0.029504 0.040302
v 0.010693 0.029504 0.040302
v 0.005818 0.029504 0.040302
v 0.000859 0.029504 0.040302
v -0.004100 0.029504 0.040302
v -0.008975 0.029504 0.040302
v -0.013681 0.029504 0.040302
v -0.018139 0.029409 0.040302
v -0.022271 0.026648 0.040302
v -0.026008 0.023371 0.040302
v -0.029285 0.019634 0.040302
v -0.032046 0.015502 0.040302
v -0.032141 0.011044 0.040302
v -0.032141 0.006338 0.040302
v -0.032141 0.001463 0.040302
v -0.032141 -0.003496 0.040302
v -0.032141 -0.008455 0.040302
v -0.032141 -0.013330 0.040302
v -0.032141 -0.018036 0.040302
v -0.032046 -0.022494 0.040302
v -0.029285 -0.026626 0.040302
v -0.026008 -0.030363 0.040302
v -0.022271 -0.033640 0.040302
v -0.018139 -0.036401 0.040302
v -0.013681 -0.036496 0.040302
v -0.008975 -0.036496 0.040302
v -0.004100 -0.036496 0.040302
v 0.000859 -0.036496 0.040302
v 0.005818 -0.036496 0.040302
v 0.010693 -0.036496 0.040302
v 0.015399 -0.036496 0.040302
v 0.019857 -0.036401 0.040302
v 0.023989 -0.033640 0.040302
v 0.027726 -0.030363 0.040302
v 0.031003 -0.026626 0.040302
v 0.033764 -0.022494 0.040302
v 0.033859 -0.018036 0.040302
v 0.033859 -0.013330 0.040302
v 0.033859 -0.008455 0.040302
v 0.033859 -0.003496 0.035534
v 0.033859 0.001506 0.035534
v 0.033859 0.006423 0.035534
v 0.033859 0.011170 0.035534
v 0.033859 0.015665 0.035534
v 0.031263 0.019834 0.035534
v 0.027957 0.023602 0.035534
v 0.024189 0.026908 0.035534
v 0.020021 0.029504 0.035534
v 0.015525 0.029504 0.035534
v 0.010778 0.029504 0.035534
v 0.005861 0.029504 0.035534
v 0.000859 0.029504 0.035534
v -0.004143 0.029504 0.035534
v -0.009060 0.029504 0.035534
v -0.013807 0.029504 0.035534
v -0.018302 0.029504 0.035534
v -0.022471 0.026908 0.035534
v -0.026239 0.023602 0.035534
v -0.029545 0.019834 0.035534
v -0.032141 0.015665 0.035534
v -0.032141 0.011170 0.035534
v -0.032141 0.006423 0.035534
v -0.032141 0.001506 0.035534
v -0.032141 -0.003496 0.035534
v -0.032141 -0.008498 0.035534
v -0.032141 -0.013415 0.035534
v -0.032141 -0.018162 0.035534
v -0.032141 -0.022657 0.035534
v -0.029545 -0.026826 0.035534
v -0.026239 -0.030594 0.035534
v -0.022471 -0.033900 0.035534
v -0.018303 -0.036496 0.035534
v -0.013807 -0.036496 0.035534
v -0.009060 -0.036496 0.035534
v -0.004143 -0.036496 0.035534
v 0.000859 -0.036496 0.035534
v 0.005861 -0.036496 0.035534
v 0.010778 -0.036496 0.035534
v 0.015525 -0.036496 0.035534
v 0.020021 -0.036496 0.035534
v 0.024189 -0.033900 0.035534
v 0.027957 -0.030594 0.035534
v 0.031263 -0.026826 0.035534
v 0.033859 -0.022658 0.035534
v 0.033859 -0.018162 0.035534
v 0.033859 -0.013415 0.035534
v 0.033859 -0.008498 0.035534
v 0.033859 -0.003496 0.030767
v 0.033859 0.001463 0.030767
v 0.033859 0.006338 0.030767
v 0.033859 0.011044 0.030767
v 0.033764 0.015502 0.030767
v 0.031003 0.019634 0.030767
v 0.027726 0.023371 0.030767
v 0.023989 0.026648 0.030767
v 0.019857 0.029409 0.030767
v 0.015399 0.029504 0.030767
v 0.010693 0.029504 0.030767
v 0.005818 0.029504 0.030767
v 0.000859 0.029504 0.030767
v -0.004100 0.029504 0.030767
v -0.008975 0.029504 0.030767
v -0.013681 0.029504 0.030767
v -0.018139 0.029409 0.030767
v -0.022271 0.026648 0.030767
v -0.026008 0.023371 0.030767
v -0.029285 0.019634 0.030767
v -0.032046 0.015502 0.030767
v -0.032141 0.011044 0.030767
v -0.032141 0.006338 0.030767
v -0.032141 0.001463 0.030767
v -0.032141 -0.003496 0.030767
v -0.032141 -0.008455 0.030767
v -0.032141 -0.013330 0.030767
v -0.032141 -0.018036 0.030767
v -0.032046 -0.022494 0.030767
v -0.029285 -0.026626 0.030767
v -0.026008 -0.030363 0.030767
v -0.022271 -0.033640 0.030767
v -0.018139 -0.036401 0.030767
v -0.013681 -0.036496 0.030767
v -0.008975 -0.036496 0.030767
v -0.004100 -0.036496 0.030767
v 0.000859 -0.036496 0.030767
v 0.005818 -0.036496 0.030767
v 0.010693 -0.036496 0.030767
v 0.015399 -0.036496 0.030767
v 0.019857 -0.036401 0.030767
v 0.023989 -0.033640 0.030767
v 0.027726 -0.030363 0.030767
v 0.031003 -0.026626 0.030767
v 0.033764 -0.022494 0.030767
v 0.033859 -0.018036 0.030767
v 0.033859 -0.013330 0.030767
v 0.033859 -0.008455 0.030767
v 0.033859 -0.003496 0.026081
v 0.033859 0.001336 0.026081
v 0.033859 0.006085 0.026081
v 0.033859 0.010670 0.026081
v 0.032917 0.015013 0.026081
v 0.030227 0.019039 0.026081
v 0.027034 0.022679 0.026081
v 0.023394 0.025872 0.026081
v 0.019368 0.028562 0.026081
v 0.015025 0.029504 0.026081
v 0.010440 0.029504 0.026081
v 0.005691 0.029504 0.026081
v 0.000859 0.029504 0.026081
v -0.003973 0.029504 0.026081
v -0.008722 0.029504 0.026081
v -0.013307 0.029504 0.026081
v -0.017650 0.028562 0.026081
v -0.021676 0.025872 0.026081
v -0.025316 0.022679 0.026081
v -0.028509 0.019039 0.026081
v -0.031199 0.015013 0.026081
v -0.032141 0.010670 0.026081
v -0.032141 0.006085 0.026081
v -0.032141 0.001336 0.026081
v -0.032141 -0.003496 0.026081
v -0.032141 -0.008328 0.026081
v -0.032141 -0.013077 0.026081
v -0.032141 -0.017662 0.026081
v -0.031199 -0.022005 0.026081
v -0.028509 -0.026031 0.026081
v -0.025316 -0.029671 0.026081
v -0.021676 -0.032864 0.026081
v -0.017650 -0.035554 0.026081
v -0.013307 -0.036496 0.026081
v -0.008722 -0.036496 0.026081
v -0.003973 -0.036496 0.026081
v 0.000859 -0.036496 0.026081
v 0.005691 -0.036496 0.026081
v 0.010440 -0.036496 0.026081
v 0.015025 -0.036496 0.026081
v 0.019368 -0.035554 0.026081
v 0.023394 -0.032864 0.026081
v 0.027034 -0.029671 0.026081
v 0.030227 -0.026031 0.026081
v 0.032917 -0.022005 0.026081
v 0.033859 -0.017662 0.026081
v 0.033859 -0.013077 0.026081
v 0.033859 -0.008328 0.026081
v 0.033859 -0.003496 0.021556
v 0.033859 0.001125 0.021556
v 0.033859 0.005668 0.021556
v 0.033570 0.010053 0.021556
v 0.031521 0.014207 0.021556
v 0.028948 0.018058 0.021556
v 0.025895 0.021540 0.021556
v 0.022413 0.024593 0.021556
v 0.018562 0.027166 0.021556
v 0.014408 0.029215 0.021556
v 0.010023 0.029504 0.021556
v 0.005480 0.029504 0.021556
v 0.000859 0.029504 0.021556
v -0.003762 0.029504 0.021556
v -0.008305 0.029504 0.021556
v -0.012690 0.029215 0.021556
v -0.016844 0.027166 0.021556
v -0.020695 0.024593 0.021556
v -0.024177 0.021540 0.021556
v -0.027230 0.018058 0.021556
v -0.029803 0.014207 0.021556
v -0.031852 0.010053 0.021556
v -0.032141 0.005668 0.021556
v -0.032141 0.001125 0.021556
v -0.032141 -0.003496 0.021556
v -0.032141 -0.008117 0.021556
v -0.032141 -0.012660 0.021556
v -0.031852 -0.017045 0.021556
v -0.029803 -0.021199 0.021556
v -0.027230 -0.025050 0.021556
v -0.024177 -0.028532 0.021556
v -0.020695 -0.031585 0.021556
v -0.016844 -0.034158 0.021556
v -0.012690 -0.036207 0.021556
v -0.008305 -0.036496 0.021556
v -0.003762 -0.036496 0.021556
v 0.000859 -0.036496 0.021556
v 0.005480 -0.036496 0.021556
v 0.010023 -0.036496 0.021556
v 0.014408 -0.036207 0.021556
v 0.018562 -0.034158 0.021556
v 0.022413 -0.031585 0.021556
v 0.025895 -0.028532 0.021556
v 0.028948 -0.025050 0.021556
v 0.031521 -0.021199 0.021556
v 0.033570 -0.017045 0.021556
v 0.033859 -0.012660 0.021556
v 0.033859 -0.008117 0.021556
v 0.033859 -0.003496 0.017271
v 0.033764 0.000836 0.017271
v 0.032917 0.005094 0.017271
v 0.031521 0.009205 0.017271
v 0.029601 0.013098 0.017271
v 0.027189 0.016708 0.017271
v 0.024327 0.019972 0.017271
v 0.021063 0.022834 0.017271
v 0.017453 0.025246 0.017271
v 0.013560 0.027166 0.017271
v 0.009449 0.028562 0.017271
v 0.005191 0.029409 0.017271
v 0.000859 0.029504 0.017271
v -0.003473 0.029409 0.017271
v -0.007731 0.028562 0.017271
v -0.011842 0.027166 0.017271
v -0.015735 0.025246 0.017271
v -0.019345 0.022834 0.017271
v -0.022609 0.019972 0.017271
v -0.025471 0.016708 0.017271
v -0.027883 0.013098 0.017271
v -0.029803 0.009205 0.017271
v -0.031199 0.005094 0.017271
v -0.032046 0.000836 0.017271
v -0.032141 -0.003496 0.017271
v -0.032046 -0.007828 0.017271
v -0.031199 -0.012086 0.017271
v -0.029803 -0.016197 0.017271
v -0.027883 -0.020090 0.017271
v -0.025471 -0.023700 0.017271
v -0.022609 -0.026964 0.017271
v -0.019345 -0.029826 0.017271
v -0.015735 -0.032238 0.017271
v -0.011842 -0.034158 0.017271
v -0.007731 -0.035554 0.017271
v -0.003473 -0.036401 0.017271
v 0.000859 -0.036496 0.017271
v 0.005191 -0.036401 0.017271
v 0.009449 -0.035554 0.017271
v 0.013560 -0.034158 0.017271
v 0.017453 -0.032238 0.017271
v 0.021063 -0.029826 0.017271
v 0.024327 -0.026964 0.017271
v 0.027189 -0.023700 0.017271
v 0.029601 -0.020090 0.017271
v 0.031521 -0.016197 0.017271
v 0.032917 -0.012086 0.017271
v 0.033764 -0.007828 0.017271
v 0.031263 -0.003496 0.013299
v 0.031003 0.000472 0.013299
v 0.030227 0.004373 0.013299
v 0.028948 0.008139 0.013299
v 0.027189 0.011706 0.013299
v 0.024980 0.015013 0.013299
v 0.022358 0.018003 0.013299
v 0.019368 0.020625 0.013299
v 0.016061 0.022834 0.013299
v 0.012494 0.024593 0.013299
v 0.008728 0.025872 0.013299
v 0.004827 0.026648 0.013299
v 0.000859 0.026908 0.013299
v -0.003109 0.026648 0.013299
v -0.007010 0.025872 0.013299
v -0.010776 0.024593 0.013299
v -0.014343 0.022834 0.013299
v -0.017650 0.020625 0.013299
v -0.020640 0.018003 0.013299
v -0.023262 0.015013 0.013299
v -0.025471 0.011706 0.013299
v -0.027230 0.008139 0.013299
v -0.028509 0.004373 0.013299
v -0.029285 0.000472 0.013299
v -0.029545 -0.003496 0.013299
v -0.029285 -0.007464 0.013299
v -0.028509 -0.011365 0.013299
v -0.027230 -0.015131 0.013299
v -0.025471 -0.018698 0.013299
v -0.023262 -0.022005 0.013299
v -0.020640 -0.024995 0.013299
v -0.017650 -0.027617 0.013299
v -0.014343 -0.029826 0.013299
v -0.010776 -0.031585 0.013299
v -0.007010 -0.032864 0.013299
v -0.003109 -0.033640 0.013299
v 0.000859 -0.033900 0.013299
v 0.004827 -0.033640 0.013299
v 0.008728 -0.032864 0.013299
v 0.012494 -0.031585 0.013299
v 0.016061 -0.029826 0.013299
v 0.019368 -0.027617 0.013299
v 0.022358 -0.024995 0.013299
v 0.024980 -0.022005 0.013299
v 0.027189 -0.018698 0.013299
v 0.028948 -0.015131 0.013299
v 0.030227 -0.011365 0.013299
v 0.031003 -0.007464 0.013299
v 0.027957 -0.003496 0.001025
v 0.027726 0.000041 0.001025
v 0.027034 0.003518 0.001025
v 0.025895 0.006874 0.001025
v 0.024327 0.010053 0.001025
v 0.022358 0.013000 0.001025
v 0.020021 0.015665 0.001025
v 0.017355 0.018003 0.001025
v 0.014408 0.019972 0.001025
v 0.011229 0.021540 0.001025
v 0.007873 0.022679 0.001025
v 0.004396 0.023371 0.001025
v 0.000859 0.023602 0.001025
v -0.002678 0.023371 0.001025
v -0.006155 0.022679 0.001025
v -0.009511 0.021540 0.001025
v -0.012690 0.019972 0.001025
v -0.015637 0.018003 0.001025
v -0.018302 0.015665 0.001025
v -0.020640 0.013000 0.001025
v -0.022609 0.010053 0.001025
v -0.024177 0.006874 0.001025
v -0.025316 0.003518 0.001025
v -0.026008 0.000041 0.001025
v -0.026239 -0.003496 0.001025
v -0.026008 -0.007033 0.001025
v -0.025316 -0.010510 0.001025
v -0.024177 -0.013866 0.001025
v -0.022609 -0.017045 0.001025
v -0.020640 -0.019992 0.001025
v -0.018303 -0.022657 0.001025
v -0.015637 -0.024995 0.001025
v -0.012690 -0.026964 0.001025
v -0.009511 -0.028532 0.001025
v -0.006155 -0.029671 0.001025
v -0.002678 -0.030363 0.001025
v 0.000859 -0.030594 0.001025
v 0.004396 -0.030363 0.001025
v 0.007873 -0.029671 0.001025
v 0.011229 -0.028532 0.001025
v 0.014408 -0.026964 0.001025
v 0.017355 -0.024995 0.001025
v 0.020020 -0.022658 0.001025
v 0.022358 -0.019992 0.001025
v 0.024327 -0.017045 0.001025
v 0.025895 -0.013866 0.001025
v 0.027034 -0.010510 0.001025
v 0.027726 -0.007033 0.001025
v 0.024189 -0.003496 0.000503
v 0.023989 -0.000451 0.000503
v 0.023394 0.002542 0.000503
v 0.022413 0.005432 0.000503
v 0.021063 0.008169 0.000503
v 0.019368 0.010706 0.000503
v 0.017355 0.013000 0.000503
v 0.015061 0.015013 0.000503
v 0.012524 0.016708 0.000503
v 0.009787 0.018058 0.000503
v 0.006897 0.019039 0.000503
v 0.003904 0.019634 0.000503
v 0.000859 0.019834 0.000503
v -0.002186 0.019634 0.000503
v -0.005179 0.019039 0.000503
v -0.008069 0.018058 0.000503
v -0.010806 0.016708 0.000503
v -0.013343 0.015013 0.000503
v -0.015637 0.013000 0.000503
v -0.017650 0.010706 0.000503
v -0.019345 0.008169 0.000503
v -0.020695 0.005432 0.000503
v -0.021676 0.002542 0.000503
v -0.022271 -0.000451 0.000503
v -0.022471 -0.003496 0.000503
v -0.022271 -0.006541 0.000503
v -0.021676 -0.009534 0.000503
v -0.020695 -0.012424 0.000503
v -0.019345 -0.015161 0.000503
v -0.017650 -0.017698 0.000503
v -0.015637 -0.019992 0.000503
v -0.013343 -0.022005 0.000503
v -0.010806 -0.023700 0.000503
v -0.008069 -0.025050 0.000503
v -0.005179 -0.026031 0.000503
v -0.002186 -0.026626 0.000503
v 0.000859 -0.026826 0.000503
v 0.003904 -0.026626 0.000503
v 0.006897 -0.026031 0.000503
v 0.009787 -0.025050 0.000503
v 0.012524 -0.023700 0.000503
v 0.015061 -0.022005 0.000503
v 0.017355 -0.019992 0.000503
v 0.019368 -0.017698 0.000503
v 0.021063 -0.015161 0.000503
v 0.022413 -0.012424 0.000503
v 0.023394 -0.009534 0.000503
v 0.023989 -0.006541 0.000503
v 0.020020 -0.003496 0.000017
v 0.019857 -0.000995 0.000017
v 0.019368 0.001463 0.000017
v 0.018562 0.003837 0.000017
v 0.017453 0.006085 0.000017
v 0.016061 0.008169 0.000017
v 0.014408 0.010053 0.000017
v 0.012524 0.011706 0.000017
v 0.010440 0.013098 0.000017
v 0.008192 0.014207 0.000017
v 0.005818 0.015013 0.000017
v 0.003360 0.015502 0.000017
v 0.000859 0.015665 0.000017
v -0.001642 0.015502 0.000017
v -0.004100 0.015013 0.000017
v -0.006474 0.014207 0.000017
v -0.008722 0.013098 0.000017
v -0.010806 0.011706 0.000017
v -0.012690 0.010053 0.000017
v -0.014343 0.008169 0.000017
v -0.015735 0.006085 0.000017
v -0.016844 0.003837 0.000017
v -0.017650 0.001463 0.000017
v -0.018139 -0.000995 0.000017
v -0.018302 -0.003496 0.000017
v -0.018139 -0.005997 0.000017
v -0.017650 -0.008455 0.000017
v -0.016844 -0.010829 0.000017
v -0.015735 -0.013077 0.000017
v -0.014343 -0.015161 0.000017
v -0.012690 -0.017045 0.000017
v -0.010806 -0.018698 0.000017
v -0.008722 -0.020090 0.000017
v -0.006474 -0.021199 0.000017
v -0.004100 -0.022005 0.000017
v -0.001642 -0.022494 0.000017
v 0.000859 -0.022657 0.000017
v 0.003360 -0.022494 0.000017
v 0.005818 -0.022005 0.000017
v 0.008192 -0.021199 0.000017
v 0.010440 -0.020090 0.000017
v 0.012524 -0.018698 0.000017
v 0.014408 -0.017045 0.000017
v 0.016061 -0.015161 0.000017
v 0.017453 -0.013077 0.000017
v 0.018562 -0.010829 0.000017
v 0.019368 -0.008455 0.000017
v 0.019857 -0.005997 0.000017
v 0.015525 -0.003496 -0.000401
v 0.015399 -0.001582 -0.000401
v 0.015025 0.000300 -0.000401
v 0.014408 0.002116 -0.000401
v 0.013560 0.003837 -0.000401
v 0.012494 0.005432 -0.000401
v 0.011229 0.006874 -0.000401
v 0.009787 0.008139 -0.000401
v 0.008192 0.009205 -0.000401
v 0.006471 0.010053 -0.000401
v 0.004655 0.010670 -0.000401
v 0.002773 0.011044 -0.000401
v 0.000859 0.011170 -0.000401
v -0.001055 0.011044 -0.000401
v -0.002937 0.010670 -0.000401
v -0.004753 0.010053 -0.000401
v -0.006474 0.009205 -0.000401
v -0.008069 0.008139 -0.000401
v -0.009511 0.006874 -0.000401
v -0.010776 0.005432 -0.000401
v -0.011842 0.003837 -0.000401
v -0.012690 0.002116 -0.000401
v -0.013307 0.000300 -0.000401
v -0.013681 -0.001582 -0.000401
v -0.013807 -0.003496 -0.000401
v -0.013681 -0.005410 -0.000401
v -0.013307 -0.007292 -0.000401
v -0.012690 -0.009108 -0.000401
v -0.011842 -0.010829 -0.000401
v -0.010776 -0.012424 -0.000401
v -0.009511 -0.013866 -0.000401
v -0.008069 -0.015131 -0.000401
v -0.006474 -0.016197 -0.000401
v -0.004753 -0.017045 -0.000401
v -0.002937 -0.017662 -0.000401
v -0.001055 -0.018036 -0.000401
v 0.000859 -0.018162 -0.000401
v 0.002773 -0.018036 -0.000401
v 0.004655 -0.017662 -0.000401
v 0.006471 -0.017045 -0.000401
v 0.008192 -0.016197 -0.000401
v 0.009787 -0.015131 -0.000401
v 0.011229 -0.013866 -0.000401
v 0.012494 -0.012424 -0.000401
v 0.013560 -0.010829 -0.000401
v 0.014408 -0.009108 -0.000401
v 0.015025 -0.007292 -0.000401
v 0.015399 -0.005410 -0.000401
v 0.010778 -0.003496 -0.000722
v 0.010693 -0.002201 -0.000722
v 0.010440 -0.000929 -0.000722
v 0.010023 0.000300 -0.000722
v 0.009449 0.001463 -0.000722
v 0.008728 0.002542 -0.000722
v 0.007873 0.003518 -0.000722
v 0.006897 0.004373 -0.000722
v 0.005818 0.005094 -0.000722
v 0.004655 0.005668 -0.000722
v 0.003426 0.006085 -0.000722
v 0.002154 0.006338 -0.000722
v 0.000859 0.006423 -0.000722
v -0.000436 0.006338 -0.000722
v -0.001708 0.006085 -0.000722
v -0.002937 0.005668 -0.000722
v -0.004100 0.005094 -0.000722
v -0.005179 0.004373 -0.000722
v -0.006155 0.003518 -0.000722
v -0.007010 0.002542 -0.000722
v -0.007731 0.001463 -0.000722
v -0.008305 0.000300 -0.000722
v -0.008722 -0.000929 -0.000722
v -0.008975 -0.002201 -0.000722
v -0.009060 -0.003496 -0.000722
v -0.008975 -0.004791 -0.000722
v -0.008722 -0.006063 -0.000722
v -0.008305 -0.007292 -0.000722
v -0.007731 -0.008455 -0.000722
v -0.007010 -0.009534 -0.000722
v -0.006155 -0.010510 -0.000722
v -0.005179 -0.011365 -0.000722
v -0.004100 -0.012086 -0.000722
v -0.002937 -0.012660 -0.000722
v -0.001708 -0.013077 -0.000722
v -0.000436 -0.013330 -0.000722
v 0.000859 -0.013415 -0.000722
v 0.002154 -0.013330 -0.000722
v 0.003426 -0.013077 -0.000722
v 0.004655 -0.012660 -0.000722
v 0.005818 -0.012086 -0.000722
v 0.006897 -0.011365 -0.000722
v 0.007873 -0.010510 -0.000722
v 0.008728 -0.009534 -0.000722
v 0.009449 -0.008455 -0.000722
v 0.010023 -0.007292 -0.000722
v 0.010440 -0.006063 -0.000722
v 0.010693 -0.004791 -0.000722
v 0.005861 -0.003496 -0.000923
v 0.005818 -0.002843 -0.000923
v 0.005691 -0.002201 -0.000923
v 0.005480 -0.001582 -0.000923
v 0.005191 -0.000995 -0.000923
v 0.004827 -0.000451 -0.000923
v 0.004396 0.000041 -0.000923
v 0.003904 0.000472 -0.000923
v 0.003360 0.000836 -0.000923
v 0.002773 0.001125 -0.000923
v 0.002154 0.001336 -0.000923
v 0.001512 0.001463 -0.000923
v 0.000859 0.001506 -0.000923
v 0.000206 0.001463 -0.000923
v -0.000436 0.001336 -0.000923
v -0.001055 0.001125 -0.000923
v -0.001642 0.000836 -0.000923
v -0.002186 0.000472 -0.000923
v -0.002678 0.000041 -0.000923
v -0.003109 -0.000451 -0.000923
v -0.003473 -0.000995 -0.000923
v -0.003762 -0.001582 -0.000923
v -0.003973 -0.002201 -0.000923
v -0.004100 -0.002843 -0.000923
v -0.004143 -0.003496 -0.000923
v -0.004100 -0.004149 -0.000923
v -0.003973 -0.004791 -0.000923
v -0.003762 -0.005410 -0.000923
v -0.003473 -0.005997 -0.000923
v -0.003109 -0.006541 -0.000923
v -0.002678 -0.007033 -0.000923
v -0.002186 -0.007464 -0.000923
v -0.001642 -0.007828 -0.000923
v -0.001055 -0.008117 -0.000923
v -0.000436 -0.008328 -0.000923
v 0.000206 -0.008455 -0.000923
v 0.000859 -0.008498 -0.000923
v 0.001512 -0.008455 -0.000923
v 0.002154 -0.008328 -0.000923
v 0.002773 -0.008117 -0.000923
v 0.003360 -0.007828 -0.000923
v 0.003904 -0.007464 -0.000923
v 0.004396 -0.007033 -0.000923
v 0.004827 -0.006541 -0.000923
v 0.005191 -0.005997 -0.000923
v 0.005480 -0.005410 -0.000923
v 0.005691 -0.004791 -0.000923
v 0.005818 -0.004149 -0.000923
v 0.000859 -0.003496 -0.000992
v 0.033859 -0.003496 0.054106
v 0.033859 -0.002222 0.054066
v 0.033859 -0.000953 0.053947
v 0.033859 0.000305 0.053749
v 0.033859 0.001547 0.053473
v 0.033859 0.002767 0.053120
v 0.033859 0.003960 0.052692
v 0.033859 0.005122 0.052191
v 0.033859 0.006246 0.051618
v 0.033859 0.007329 0.050976
v 0.033859 0.008366 0.050268
v 0.033859 0.009351 0.049497
v 0.033859 0.010282 0.048666
v 0.033859 0.011153 0.047779
v 0.033859 0.011962 0.046840
v 0.033859 0.012705 0.045852
v 0.033859 0.013378 0.044820
v 0.033859 0.013979 0.043748
v 0.033859 0.014505 0.042641
v 0.033859 0.014955 0.041504
v 0.033859 0.015325 0.040341
v 0.033859 0.015614 0.039158
v 0.033859 0.015822 0.037959
v 0.033859 0.015947 0.036749
v 0.033859 0.015989 0.035534
v 0.033859 0.015947 0.034320
v 0.033859 0.015822 0.033110
v 0.033859 0.015614 0.031911
v 0.033859 0.015325 0.030728
v 0.033859 0.014955 0.029565
v 0.033859 0.014505 0.028428
v 0.033859 0.013979 0.027321
v 0.033859 0.013378 0.026249
v 0.033859 0.012705 0.025217
v 0.033859 0.011962 0.024229
v 0.033859 0.011153 0.023290
v 0.033859 0.010282 0.022403
v 0.033859 0.009351 0.021572
v 0.033859 0.008366 0.020801
v 0.033859 0.007329 0.020093
v 0.033859 0.006246 0.019451
v 0.033859 0.005122 0.018878
v 0.033859 0.003960 0.018377
v 0.033859 0.002767 0.017949
v 0.033859 0.001547 0.017596
v 0.033859 0.000305 0.017320
v 0.033859 -0.000953 0.017122
v 0.033859 -0.002222 0.017003
v 0.033859 -0.003496 0.016963
v 0.033859 -0.004770 0.017003
v 0.033859 -0.006039 0.017122
v 0.033859 -0.007297 0.017320
v 0.033859 -0.008539 0.017596
v 0.033859 -0.009759 0.017949
v 0.033859 -0.010952 0.018377
v 0.033859 -0.012114 0.018878
v 0.033859 -0.013238 0.019451
v 0.033859 -0.014321 0.020093
v 0.033859 -0.015358 0.020801
v 0.033859 -0.016343 0.021572
v 0.033859 -0.017274 0.022403
v 0.033859 -0.018145 0.023290
v 0.033859 -0.018954 0.024229
v 0.033859 -0.019697 0.025217
v 0.033859 -0.020370 0.026249
v 0.033859 -0.020971 0.027321
v 0.033859 -0.021497 0.028428
v 0.033859 -0.021947 0.029565
v 0.033859 -0.022317 0.030728
v 0.033859 -0.022606 0.031911
v 0.033859 -0.022814 0.033110
v 0.033859 -0.022939 0.034320
v 0.033859 -0.022981 0.035534
v 0.033859 -0.022939 0.036749
v 0.033859 -0.022814 0.037959
v 0.033859 -0.022606 0.039158
v 0.033859 -0.022317 0.040341
v 0.033859 -0.021947 0.041504
v 0.033859 -0.021497 0.042641
v 0.033859 -0.020971 0.043748
v 0.033859 -0.020370 0.044820
v 0.033859 -0.019697 0.045852
v 0.033859 -0.018954 0.046840
v 0.033859 -0.018145 0.047779
v 0.033859 -0.017274 0.048666
v 0.033859 -0.016343 0.049497
v 0.033859 -0.015358 0.050268
v 0.033859 -0.014321 0.050976
v 0.033859 -0.013238 0.051618
v 0.033859 -0.012114 0.052191
v 0.033859 -0.010952 0.052692
v 0.033859 -0.009759 0.053120
v 0.033859 -0.008539 0.053473
v 0.033859 -0.007297 0.053749
v 0.033859 -0.006039 0.053947
v 0.033859 -0.004770 0.054066
v 0.000859 0.029504 0.054106
v 0.002133 0.029504 0.054066
v 0.003402 0.029504 0.053947
v 0.004660 0.029504 0.053749
v 0.005902 0.029504 0.053473
v 0.007122 0.029504 0.053120
v 0.008315 0.029504 0.052692
v 0.009477 0.029504 0.052191
v 0.010601 0.029504 0.051618
v 0.011684 0.029504 0.050976
v 0.012721 0.029504 0.050268
v 0.013706 0.029504 0.049497
v 0.014637 0.029504 0.048666
v 0.015508 0.029504 0.047779
v 0.016317 0.029504 0.046840
v 0.017060 0.029504 0.045852
v 0.017733 0.029504 0.044820
v 0.018334 0.029504 0.043748
v 0.018860 0.029504 0.042641
v 0.019310 0.029504 0.041504
v 0.019680 0.029504 0.040341
v 0.019969 0.029504 0.039158
v 0.020177 0.029504 0.037959
v 0.020302 0.029504 0.036749
v 0.020344 0.029504 0.035534
v 0.020302 0.029504 0.034320
v 0.020177 0.029504 0.033110
v 0.019969 0.029504 0.031911
v 0.019680 0.029504 0.030728
v 0.019310 0.029504 0.029565
v 0.018860 0.029504 0.028428
v 0.018334 0.029504 0.027321
v 0.017733 0.029504 0.026249
v 0.017060 0.029504 0.025217
v 0.016317 0.029504 0.024229
v 0.015508 0.029504 0.023290
v 0.014637 0.029504 0.022403
v 0.013706 0.029504 0.021572
v 0.012721 0.029504 0.020801
v 0.011684 0.029504 0.020093
v 0.010601 0.029504 0.019451
v 0.009477 0.029504 0.018878
v 0.008315 0.029504 0.018377
v 0.007122 0.029504 0.017949
v 0.005902 0.029504 0.017596
v 0.004660 0.029504 0.017320
v 0.003402 0.029504 0.017122
v 0.002133 0.029504 0.017003
v 0.000859 0.029504 0.016963
v -0.000415 0.029504 0.017003
v -0.001684 0.029504 0.017122
v -0.002942 0.029504 0.017320
v -0.004184 0.029504 0.017596
v -0.005404 0.029504 0.017949
v -0.006597 0.029504 0.018377
v -0.007759 0.029504 0.018878
v -0.008883 0.029504 0.019451
v -0.009966 0.029504 0.020093
v -0.011003 0.029504 0.020801
v -0.011988 0.029504 0.021572
v -0.012919 0.029504 0.022403
v -0.013790 0.029504 0.023290
v -0.014599 0.029504 0.024229
v -0.015342 0.029504 0.025217
v -0.016015 0.029504 0.026249
v -0.016616 0.029504 0.027321
v -0.017142 0.029504 0.028428
v -0.017592 0.029504 0.029565
v -0.017962 0.029504 0.030728
v -0.018251 0.029504 0.031911
v -0.018459 0.029504 0.033110
v -0.018584 0.029504 0.034320
v -0.018626 0.029504 0.035534
v -0.018584 0.029504 0.036749
v -0.018459 0.029504 0.037959
v -0.018251 0.029504 0.039158
v -0.017962 0.029504 0.040341
v -0.017592 0.029504 0.041504
v -0.017142 0.029504 0.042641
v -0.016616 0.029504 0.043748
v -0.016015 0.029504 0.044820
v -0.015342 0.029504 0.045852
v -0.014599 0.029504 0.046840
v -0.013790 0.029504 0.047779
v -0.012919 0.029504 0.048666
v -0.011988 0.029504 0.049497
v -0.011003 0.029504 0.050268
v -0.009966 0.029504 0.050976
v -0.008883 0.029504 0.051618
v -0.007759 0.029504 0.052191
v -0.006597 0.029504 0.052692
v -0.005404 0.029504 0.053120
v -0.004184 0.029504 0.053473
v -0.002942 0.029504 0.053749
v -0.001684 0.029504 0.053947
v -0.000415 0.029504 0.054066
v -0.032141 -0.003496 0.054106
v -0.032141 -0.002222 0.054066
v -0.032141 -0.000953 0.053947
v -0.032141 0.000305 0.053749
v -0.032141 0.001547 0.053473
v -0.032141 0.002767 0.053120
v -0.032141 0.003960 0.052692
v -0.032141 0.005122 0.052191
v -0.032141 0.006246 0.051618
v -0.032141 0.007329 0.050976
v -0.032141 0.008366 0.050268
v -0.032141 0.009351 0.049497
v -0.032141 0.010282 0.048666
v -0.032141 0.011153 0.047779
v -0.032141 0.011962 0.046840
v -0.032141 0.012705 0.045852
v -0.032141 0.013378 0.044820
v -0.032141 0.013979 0.043748
v -0.032141 0.014505 0.042641
v -0.032141 0.014955 0.041504
v -0.032141 0.015325 0.040341
v -0.032141 0.015614 0.039158
v -0.032141 0.015822 0.037959
v -0.032141 0.015947 0.036749
v -0.032141 0.015989 0.035534
v -0.032141 0.015947 0.034320
v -0.032141 0.015822 0.033110
v -0.032141 0.015614 0.031911
v -0.032141 0.015325 0.030728
v -0.032141 0.014955 0.029565
v -0.032141 0.014505 0.028428
v -0.032141 0.013979 0.027321
v -0.032141 0.013378 0.026249
v -0.032141 0.012705 0.025217
v -0.032141 0.011962 0.024229
v -0.032141 0.011153 0.023290
v -0.032141 0.010282 0.022403
v -0.032141 0.009351 0.021572
v -0.032141 0.008366 0.020801
v -0.032141 0.007329 0.020093
v -0.032141 0.006246 0.019451
v -0.032141 0.005122 0.018878
v -0.032141 0.003960 0.018377
v -0.032141 0.002767 0.017949
v -0.032141 0.001547 0.017596
v -0.032141 0.000305 0.017320
v -0.032141 -0.000953 0.017122
v -0.032141 -0.002222 0.017003
v -0.032141 -0.003496 0.016963
v -0.032141 -0.004770 0.017003
v -0.032141 -0.006039 0.017122
v -0.032141 -0.007297 0.017320
v -0.032141 -0.008539 0.017596
v -0.032141 -0.009759 0.017949
v -0.032141 -0.010952 0.018377
v -0.032141 -0.012114 0.018878
v -0.032141 -0.013238 0.019451
v -0.032141 -0.014321 0.020093
v -0.032141 -0.015358 0.020801
v -0.032141 -0.016343 0.021572
v -0.032141 -0.017274 0.022403
v -0.032141 -0.018145 0.023290
v -0.032141 -0.018954 0.024229
v -0.032141 -0.019697 0.025217
v -0.032141 -0.020370 0.026249
v -0.032141 -0.020971 0.027321
v -0.032141 -0.021497 0.028428
v -0.032141 -0.021947 0.029565
v -0.032141 -0.022317 0.030728
v -0.032141 -0.022606 0.031911
v -0.032141 -0.022814 0.033110
v -0.032141 -0.022939 0.034320
v -0.032141 -0.022981 0.035534
v -0.032141 -0.022939 0.036749
v -0.032141 -0.022814 0.037959
v -0.032141 -0.022606 0.039158
v -0.032141 -0.022317 0.040341
v -0.032141 -0.021947 0.041504
v -0.032141 -0.021497 0.042641
v -0.032141 -0.020971 0.043748
v -0.032141 -0.020370 0.044820
v -0.032141 -0.019697 0.045852
v -0.032141 -0.018954 0.046840
v -0.032141 -0.018145 0.047779
v -0.032141 -0.017274 0.048666
v -0.032141 -0.016343 0.049497
v -0.032141 -0.015358 0.050268
v -0.032141 -0.014321 0.050976
v -0.032141 -0.013238 0.051618
v -0.032141 -0.012114 0.052191
v -0.032141 -0.010952 0.052692
v -0.032141 -0.009759 0.053120
v -0.032141 -0.008539 0.053473
v -0.032141 -0.007297 0.053749
v -0.032141 -0.006039 0.053947
v -0.032141 -0.004770 0.054066
v 0.000859 -0.036496 0.054106
v 0.002133 -0.036496 0.054066
v 0.003402 -0.036496 0.053947
v 0.004660 -0.036496 0.053749
v 0.005902 -0.036496 0.053473
v 0.007122 -0.036496 0.053120
v 0.008315 -0.036496 0.052692
v 0.009477 -0.036496 0.052191
v 0.010601 -0.036496 0.051618
v 0.011684 -0.036496 0.050976
v 0.012721 -0.036496 0.050268
v 0.013706 -0.036496 0.049497
v 0.014637 -0.036496 0.048666
v 0.015508 -0.036496 0.047779
v 0.016317 -0.036496 0.046840
v 0.017060 -0.036496 0.045852
v 0.017733 -0.036496 0.044820
v 0.018334 -0.036496 0.043748
v 0.018860 -0.036496 0.042641
v 0.019310 -0.036496 0.041504
v 0.019680 -0.036496 0.040341
v 0.019969 -0.036496 0.039158
v 0.020177 -0.036496 0.037959
v 0.020302 -0.036496 0.036749
v 0.020344 -0.036496 0.035534
v 0.020302 -0.036496 0.034320
v 0.020177 -0.036496 0.033110
v 0.019969 -0.036496 0.031911
v 0.019680 -0.036496 0.030728
v 0.019310 -0.036496 0.029565
v 0.018860 -0.036496 0.028428
v 0.018334 -0.036496 0.027321
v 0.017733 -0.036496 0.026249
v 0.017060 -0.036496 0.025217
v 0.016317 -0.036496 0.024229
v 0.015508 -0.036496 0.023290
v 0.014637 -0.036496 0.022403
v 0.013706 -0.036496 0.021572
v 0.012721 -0.036496 0.020801
v 0.011684 -0.036496 0.020093
v 0.010601 -0.036496 0.019451
v 0.009477 -0.036496 0.018878
v 0.008315 -0.036496 0.018377
v 0.007122 -0.036496 0.017949
v 0.005902 -0.036496 0.017596
v 0.004660 -0.036496 0.017320
v 0.003402 -0.036496 0.017122
v 0.002133 -0.036496 0.017003
v 0.000859 -0.036496 0.016963
v -0.000415 -0.036496 0.017003
v -0.001684 -0.036496 0.017122
v -0.002942 -0.036496 0.017320
v -0.004184 -0.036496 0.017596
v -0.005404 -0.036496 0.017949
v -0.006597 -0.036496 0.018377
v -0.007759 -0.036496 0.018878
v -0.008883 -0.036496 0.019451
v -0.009966 -0.036496 0.020093
v -0.011003 -0.036496 0.020801
v -0.011988 -0.036496 0.021572
v -0.012919 -0.036496 0.022403
v -0.013790 -0.036496 0.023290
v -0.014599 -0.036496 0.024229
v -0.015342 -0.036496 0.025217
v -0.016015 -0.036496 0.026249
v -0.016616 -0.036496 0.027321
v -0.017142 -0.036496 0.028428
v -0.017592 -0.036496 0.029565
v -0.017962 -0.036496 0.030728
v -0.018251 -0.036496 0.031911
v -0.018459 -0.036496 0.033110
v -0.018584 -0.036496 0.034320
v -0.018626 -0.036496 0.035534
v -0.018584 -0.036496 0.036749
v -0.018459 -0.036496 0.037959
v -0.018251 -0.036496 0.039158
v -0.017962 -0.036496 0.040341
v -0.017592 -0.036496 0.041504
v -0.017142 -0.036496 0.042641
v -0.016616 -0.036496 0.043748
v -0.016015 -0.036496 0.044820
v -0.015342 -0.036496 0.045852
v -0.014599 -0.036496 0.046840
v -0.013790 -0.036496 0.047779
v -0.012919 -0.036496 0.048666
v -0.011988 -0.036496 0.049497
v -0.011003 -0.036496 0.050268
v -0.009966 -0.036496 0.050976
v -0.008883 -0.036496 0.051618
v -0.007759 -0.036496 0.052191
v -0.006597 -0.036496 0.052692
v -0.005404 -0.036496 0.053120
v -0.004184 -0.036496 0.053473
v -0.002942 -0.036496 0.053749
v -0.001684 -0.036496 0.053947
v -0.000415 -0.036496 0.054066
v 0.000859 0.026671 0.001508
v 0.002832 0.026607 0.001508
v 0.004797 0.026413 0.001508
v 0.006744 0.026092 0.001508
v 0.008667 0.025643 0.001508
v 0.010556 0.025070 0.001508
v 0.012404 0.024375 0.001508
v 0.014202 0.023560 0.001508
v 0.015943 0.022630 0.001508
v 0.017619 0.021587 0.001508
v 0.019224 0.020437 0.001508
v 0.020750 0.019185 0.001508
v 0.022191 0.017836 0.001508
v 0.023540 0.016395 0.001508
v 0.024792 0.014869 0.001508
v 0.025942 0.013264 0.001508
v 0.026985 0.011588 0.001508
v 0.027915 0.009847 0.001508
v 0.028730 0.008049 0.001508
v 0.029425 0.006201 0.001508
v 0.029998 0.004312 0.001508
v 0.030447 0.002389 0.001508
v 0.030768 0.000442 0.001508
v 0.030962 -0.001523 0.001508
v 0.031026 -0.003496 0.001508
v 0.030962 -0.005469 0.001508
v 0.030768 -0.007434 0.001508
v 0.030447 -0.009381 0.001508
v 0.029998 -0.011304 0.001508
v 0.029425 -0.013193 0.001508
v 0.028730 -0.015041 0.001508
v 0.027915 -0.016839 0.001508
v 0.026985 -0.018580 0.001508
v 0.025942 -0.020256 0.001508
v 0.024792 -0.021861 0.001508
v 0.023540 -0.023387 0.001508
v 0.022191 -0.024828 0.001508
v 0.020750 -0.026177 0.001508
v 0.019224 -0.027429 0.001508
v 0.017619 -0.028579 0.001508
v 0.015943 -0.029622 0.001508
v 0.014202 -0.030552 0.001508
v 0.012404 -0.031367 0.001508
v 0.010556 -0.032062 0.001508
v 0.008667 -0.032635 0.001508
v 0.006744 -0.033084 0.001508
v 0.004797 -0.033405 0.001508
v 0.002832 -0.033599 0.001508
v 0.000859 -0.033663 0.001508
v -0.001114 -0.033599 0.001508
v -0.003079 -0.033405 0.001508
v -0.005026 -0.033084 0.001508
v -0.006949 -0.032635 0.001508
v -0.008838 -0.032062 0.001508
v -0.010686 -0.031367 0.001508
v -0.012484 -0.030552 0.001508
v -0.014225 -0.029622 0.001508
v -0.015901 -0.028579 0.001508
v -0.017506 -0.027429 0.001508
v -0.019032 -0.026177 0.001508
v -0.020473 -0.024828 0.001508
v -0.021822 -0.023387 0.001508
v -0.023074 -0.021861 0.001508
v -0.024224 -0.020256 0.001508
v -0.025267 -0.018580 0.001508
v -0.026197 -0.016839 0.001508
v -0.027012 -0.015041 0.001508
v -0.027707 -0.013193 0.001508
v -0.028280 -0.011304 0.001508
v -0.028729 -0.009381 0.001508
v -0.029050 -0.007434 0.001508
v -0.029244 -0.005469 0.001508
v -0.029308 -0.003496 0.001508
v -0.029244 -0.001523 0.001508
v -0.029050 0.000442 0.001508
v -0.028729 0.002389 0.001508
v -0.028280 0.004312 0.001508
v -0.027707 0.006201 0.001508
v -0.027012 0.008049 0.001508
v -0.026197 0.009847 0.001508
v -0.025267 0.011588 0.001508
v -0.024224 0.013264 0.001508
v -0.023074 0.014869 0.001508
v -0.021822 0.016395 0.001508
v -0.020473 0.017836 0.001508
v -0.019032 0.019185 0.001508
v -0.017506 0.020437 0.001508
v -0.015901 0.021587 0.001508
v -0.014225 0.022630 0.001508
v -0.012484 0.023560 0.001508
v -0.010686 0.024375 0.001508
v -0.008838 0.025070 0.001508
v -0.006949 0.025643 0.001508
v -0.005026 0.026092 0.001508
v -0.003079 0.026413 0.001508
v -0.001114 0.026607 0.001508
f 1 2 3
f 1 3 4
f 1 4 5
f 1 5 6
f 1 6 7
f 1 7 8
f 1 8 9
f 1 9 10
f 1 10 11
f 1 11 12
f 1 12 13
f 1 13 14
f 1 14 15
f 1 15 16
f 1 16 17
f 1 17 18
f 1 18 19
f 1 19 20
f 1 20 21
f 1 21 22
f 1 22 23
f 1 23 24
f 1 24 25
f 1 25 26
f 1 26 27
f 1 27 28
f 1 28 29
f 1 29 30
f 1 30 31
f 1 31 32
f 1 32 33
f 1 33 34
f 1 34 35
f 1 35 36
f 1 36 37
f 1 37 38
f 1 38 39
f 1 39 40
f 1 40 41
f 1 41 42
f 1 42 43
f 1 43 44
f 1 44 45
f 1 45 46
f 1 46 47
f 1 47 48
f 1 48 49
f 1 49 2
f 2 50 51
f 2 51 3
f 3 51 52
f 3 52 4
f 4 52 53
f 4 53 5
f 5 53 54
f 5 54 6
f 6 54 55
f 6 55 7
f 7 55 56
f 7 56 8
f 8 56 57
f 8 57 9
f 9 57 58
f 9 58 10
f 10 58 59
f 10 59 11
f 11 59 60
f 11 60 12
f 12 60 61
f 12 61 13
f 13 61 62
f 13 62 14
f 14 62 63
f 14 63 15
f 15 63 64
f 15 64 16
f 16 64 65
f 16 65 17
f 17 65 66
f 17 66 18
f 18 66 67
f 18 67 19
f 19 67 68
f 19 68 20
f 20 68 69
f 20 69 21
f 21 69 70
f 21 70 22
f 22 70 71
f 22 71 23
f 23 71 72
f 23 72 24
f 24 72 73
f 24 73 25
f 25 73 74
f 25 74 26
f 26 74 75
f 26 75 27
f 27 75 76
f 27 76 28
f 28 76 77
f 28 77 29
f 29 77 78
f 29 78 30
f 30 78 79
f 30 79 31
f 31 79 80
f 31 80 32
f 32 80 81
f 32 81 33
f 33 81 82
f 33 82 34
f 34 82 83
f 34 83 35
f 35 83 84
f 35 84 36
f 36 84 85
f 36 85 37
f 37 85 86
f 37 86 38
f 38 86 87
f 38 87 39
f 39 87 88
f 39 88 40
f 40 88 89
f 40 89 41
f 41 89 90
f 41 90 42
f 42 90 91
f 42 91 43
f 43 91 92
f 43 92 44
f 44 92 93
f 44 93 45
f 45 93 94
f 45 94 46
f 46 94 95
f 46 95 47
f 47 95 96
f 47 96 48
f 48 96 97
f 48 97 49
f 49 97 50
f 49 50 2
f 50 98 99
f 50 99 51
f 51 99 100
f 51 100 52
f 52 100 101
f 52 101 53
f 53 101 102
f 53 102 54
f 54 102 103
f 54 103 55
f 55 103 104
f 55 104 56
f 56 104 105
f 56 105 57
f 57 105 106
f 57 106 58
f 58 106 107
f 58 107 59
f 59 107 108
f 59 108 60
f 60 108 109
f 60 109 61
f 61 109 110
f 61 110 62
f 62 110 111
f 62 111 63
f 63 111 112
f 63 112 64
f 64 112 113
f 64 113 65
f 65 113 114
f 65 114 66
f 66 114 115
f 66 115 67
f 67 115 116
f 67 116 68
f 68 116 117
f 68 117 69
f 69 117 118
f 69 118 70
f 70 118 119
f 70 119 71
f 71 119 120
f 71 120 72
f 72 120 121
f 72 121 73
f 73 121 122
f 73 122 74
f 74 122 123
f 74 123 75
f 75 123 124
f 75 124 76
f 76 124 125
f 76 125 77
f 77 125 126
f 77 126 78
f 78 126 127
f 78 127 79
f 79 127 128
f 79 128 80
f 80 128 129
f 80 129 81
f 81 129 130
f 81 130 82
f 82 130 131
f 82 131 83
f 83 131 132
f 83 132 84
f 84 132 133
f 84 133 85
f 85 133 134
f 85 134 86
f 86 134 135
f 86 135 87
f 87 135 136
f 87 136 88
f 88 136 137
f 88 137 89
f 89 137 138
f 89 138 90
f 90 138 139
f 90 139 91
f 91 139 140
f 91 140 92
f 92 140 141
f 92 141 93
f 93 141 142
f 93 142 94
f 94 142 143
f 94 143 95
f 95 143 144
f 95 144 96
f 96 144 145
f 96 145 97
f 97 145 98
f 97 98 50
f 98 146 147
f 98 147 99
f 99 147 148
f 99 148 100
f 100 148 149
f 100 149 101
f 101 149 150
f 101 150 102
f 102 150 151
f 102 151 103
f 103 151 152
f 103 152 104
f 104 152 153
f 104 153 105
f 105 153 154
f 105 154 106
f 106 154 155
f 106 155 107
f 107 155 156
f 107 156 108
f 108 156 157
f 108 157 109
f 109 157 158
f 109 158 110
f 110 158 159
f 110 159 111
f 111 159 160
f 111 160 112
f 112 160 161
f 112 161 113
f 113 161 162
f 113 162 114
f 114 162 163
f 114 163 115
f 115 163 164
f 115 164 116
f 116 164 165
f 116 165 117
f 117 165 166
f 117 166 118
f 118 166 167
f 118 167 119
f 119 167 168
f 119 168 120
f 120 168 169
f 120 169 121
f 121 169 170
f 121 170 122
f 122 170 171
f 122 171 123
f 123 171 172
f 123 172 124
f 124 172 173
f 124 173 125
f 125 173 174
f 125 174 126
f 126 174 175
f 126 175 127
f 127 175 176
f 127 176 128
f 128 176 177
f 128 177 129
f 129 177 178
f 129 178 130
f 130 178 179
f 130 179 131
f 131 179 180
f 131 180 132
f 132 180 181
f 132 181 133
f 133 181 182
f 133 182 134
f 134 182 183
f 134 183 135
f 135 183 184
f 135 184 136
f 136 184 185
f 136 185 137
f 137 185 186
f 137 186 138
f 138 186 187
f 138 187 139
f 139 187 188
f 139 188 140
f 140 188 189
f 140 189 141
f 141 189 190
f 141 190 142
f 142 190 191
f 142 191 143
f 143 191 192
f 143 192 144
f 144 192 193
f 144 193 145
f 145 193 146
f 145 146 98
f 146 194 195
f 146 195 147
f 147 195 196
f 147 196 148
f 148 196 197
f 148 197 149
f 149 197 198
f 149 198 150
f 150 198 199
f 150 199 151
f 151 199 200
f 151 200 152
f 152 200 201
f 152 201 153
f 153 201 202
f 153 202 154
f 154 202 203
f 154 203 155
f 155 203 204
f 155 204 156
f 156 204 205
f 156 205 157
f 157 205 206
f 157 206 158
f 158 206 207
f 158 207 159
f 159 207 208
f 159 208 160
f 160 208 209
f 160 209 161
f 161 209 210
f 161 210 162
f 162 210 211
f 162 211 163
f 163 211 212
f 163 212 164
f 164 212 213
f 164 213 165
f 165 213 214
f 165 214 166
f 166 214 215
f 166 215 167
f 167 215 216
f 167 216 168
f 168 216 217
f 168 217 169
f 169 217 218
f 169 218 170
f 170 218 219
f 170 219 171
f 171 219 220
f 171 220 172
f 172 220 221
f 172 221 173
f 173 221 222
f 173 222 174
f 174 222 223
f 174 223 175
f 175 223 224
f 175 224 176
f 176 224 225
f 176 225 177
f 177 225 226
f 177 226 178
f 178 226 227
f 178 227 179
f 179 227 228
f 179 228 180
f 180 228 229
f 180 229 181
f 181 229 230
f 181 230 182
f 182 230 231
f 182 231 183
f 183 231 232
f 183 232 184
f 184 232 233
f 184 233 185
f 185 233 234
f 185 234 186
f 186 234 235
f 186 235 187
f 187 235 236
f 187 236 188
f 188 236 237
f 188 237 189
f 189 237 238
f 189 238 190
f 190 238 239
f 190 239 191
f 191 239 240
f 191 240 192
f 192 240 241
f 192 241 193
f 193 241 194
f 193 194 146
f 194 242 243
f 194 243 195
f 195 243 244
f 195 244 196
f 196 244 245
f 196 245 197
f 197 245 246
f 197 246 198
f 198 246 247
f 198 247 199
f 199 247 248
f 199 248 200
f 200 248 249
f 200 249 201
f 201 249 250
f 201 250 202
f 202 250 251
f 202 251 203
f 203 251 252
f 203 252 204
f 204 252 253
f 204 253 205
f 205 253 254
f 205 254 206
f 206 254 255
f 206 255 207
f 207 255 256
f 207 256 208
f 208 256 257
f 208 257 209
f 209 257 258
f 209 258 210
f 210 258 259
f 210 259 211
f 211 259 260
f 211 260 212
f 212 260 261
f 212 261 213
f 213 261 262
f 213 262 214
f 214 262 263
f 214 263 215
f 215 263 264
f 215 264 216
f 216 264 265
f 216 265 217
f 217 265 266
f 217 266 218
f 218 266 267
f 218 267 219
f 219 267 268
f 219 268 220
f 220 268 269
f 220 269 221
f 221 269 270
f 221 270 222
f 222 270 271
f 222 271 223
f 223 271 272
f 223 272 224
f 224 272 273
f 224 273 225
f 225 273 274
f 225 274 226
f 226 274 275
f 226 275 227
f 227 275 276
f 227 276 228
f 228 276 277
f 228 277 229
f 229 277 278
f 229 278 230
f 230 278 279
f 230 279 231
f 231 279 280
f 231 280 232
f 232 280 281
f 232 281 233
f 233 281 282
f 233 282 234
f 234 282 283
f 234 283 235
f 235 283 284
f 235 284 236
f 236 284 285
f 236 285 237
f 237 285 286
f 237 286 238
f 238 286 287
f 238 287 239
f 239 287 288
f 239 288 240
f 240 288 289
f 240 289 241
f 241 289 242
f 241 242 194
f 242 290 291
f 242 291 243
f 243 291 292
f 243 292 244
f 244 292 293
f 244 293 245
f 245 293 294
f 245 294 246
f 246 294 295
f 246 295 247
f 247 295 296
f 247 296 248
f 248 296 297
f 248 297 249
f 249 297 298
f 249 298 250
f 250 298 299
f 250 299 251
f 251 299 300
f 251 300 252
f 252 300 301
f 252 301 253
f 253 301 302
f 253 302 254
f 254 302 303
f 254 303 255
f 255 303 304
f 255 304 256
f 256 304 305
f 256 305 257
f 257 305 306
f 257 306 258
f 258 306 307
f 258 307 259
f 259 307 308
f 259 308 260
f 260 308 309
f 260 309 261
f 261 309 310
f 261 310 262
f 262 310 311
f 262 311 263
f 263 311 312
f 263 312 264
f 264 312 313
f 264 313 265
f 265 313 314
f 265 314 266
f 266 314 315
f 266 315 267
f 267 315 316
f 267 316 268
f 268 316 317
f 268 317 269
f 269 317 318
f 269 318 270
f 270 318 319
f 270 319 271
f 271 319 320
f 271 320 272
f 272 320 321
f 272 321 273
f 273 321 322
f 273 322 274
f 274 322 323
f 274 323 275
f 275 323 324
f 275 324 276
f 276 324 325
f 276 325 277
f 277 325 326
f 277 326 278
f 278 326 327
f 278 327 279
f 279 327 328
f 279 328 280
f 280 328 329
f 280 329 281
f 281 329 330
f 281 330 282
f 282 330 331
f 282 331 283
f 283 331 332
f 283 332 284
f 284 332 333
f 284 333 285
f 285 333 334
f 285 334 286
f 286 334 335
f 286 335 287
f 287 335 336
f 287 336 288
f 288 336 337
f 288 337 289
f 289 337 290
f 289 290 242
f 290 338 339
f 290 339 291
f 291 339 340
f 291 340 292
f 292 340 341
f 292 341 293
f 293 341 342
f 293 342 294
f 294 342 343
f 294 343 295
f 295 343 344
f 295 344 296
f 296 344 345
f 296 345 297
f 297 345 346
f 297 346 298
f 298 346 347
f 298 347 299
f 299 347 348
f 299 348 300
f 300 348 349
f 300 349 301
f 301 349 350
f 301 350 302
f 302 350 351
f 302 351 303
f 303 351 352
f 303 352 304
f 304 352 353
f 304 353 305
f 305 353 354
f 305 354 306
f 306 354 355
f 306 355 307
f 307 355 356
f 307 356 308
f 308 356 357
f 308 357 309
f 309 357 358
f 309 358 310
f 310 358 359
f 310 359 311
f 311 359 360
f 311 360 312
f 312 360 361
f 312 361 313
f 313 361 362
f 313 362 314
f 314 362 363
f 314 363 315
f 315 363 364
f 315 364 316
f 316 364 365
f 316 365 317
f 317 365 366
f 317 366 318
f 318 366 367
f 318 367 319
f 319 367 368
f 319 368 320
f 320 368 369
f 320 369 321
f 321 369 370
f 321 370 322
f 322 370 371
f 322 371 323
f 323 371 372
f 323 372 324
f 324 372 373
f 324 373 325
f 325 373 374
f 325 374 326
f 326 374 375
f 326 375 327
f 327 375 376
f 327 376 328
f 328 376 377
f 328 377 329
f 329 377 378
f 329 378 330
f 330 378 379
f 330 379 331
f 331 379 380
f 331 380 332
f 332 380 381
f 332 381 333
f 333 381 382
f 333 382 334
f 334 382 383
f 334 383 335
f 335 383 384
f 335 384 336
f 336 384 385
f 336 385 337
f 337 385 338
f 337 338 290
f 338 386 387
f 338 387 339
f 339 387 388
f 339 388 340
f 340 388 389
f 340 389 341
f 341 389 390
f 341 390 342
f 342 390 391
f 342 391 343
f 343 391 392
f 343 392 344
f 344 392 393
f 344 393 345
f 345 393 394
f 345 394 346
f 346 394 395
f 346 395 347
f 347 395 396
f 347 396 348
f 348 396 397
f 348 397 349
f 349 397 398
f 349 398 350
f 350 398 399
f 350 399 351
f 351 399 400
f 351 400 352
f 352 400 401
f 352 401 353
f 353 401 402
f 353 402 354
f 354 402 403
f 354 403 355
f 355 403 404
f 355 404 356
f 356 404 405
f 356 405 357
f 357 405 406
f 357 406 358
f 358 406 407
f 358 407 359
f 359 407 408
f 359 408 360
f 360 408 409
f 360 409 361
f 361 409 410
f 361 410 362
f 362 410 411
f 362 411 363
f 363 411 412
f 363 412 364
f 364 412 413
f 364 413 365
f 365 413 414
f 365 414 366
f 366 414 415
f 366 415 367
f 367 415 416
f 367 416 368
f 368 416 417
f 368 417 369
f 369 417 418
f 369 418 370
f 370 418 419
f 370 419 371
f 371 419 420
f 371 420 372
f 372 420 421
f 372 421 373
f 373 421 422
f 373 422 374
f 374 422 423
f 374 423 375
f 375 423 424
f 375 424 376
f 376 424 425
f 376 425 377
f 377 425 426
f 377 426 378
f 378 426 427
f 378 427 379
f 379 427 428
f 379 428 380
f 380 428 429
f 380 429 381
f 381 429 430
f 381 430 382
f 382 430 431
f 382 431 383
f 383 431 432
f 383 432 384
f 384 432 433
f 384 433 385
f 385 433 386
f 385 386 338
f 386 434 435
f 386 435 387
f 387 435 436
f 387 436 388
f 388 436 437
f 388 437 389
f 389 437 438
f 389 438 390
f 390 438 439
f 390 439 391
f 391 439 440
f 391 440 392
f 392 440 441
f 392 441 393
f 393 441 442
f 393 442 394
f 394 442 443
f 394 443 395
f 395 443 444
f 395 444 396
f 396 444 445
f 396 445 397
f 397 445 446
f 397 446 398
f 398 446 447
f 398 447 399
f 399 447 448
f 399 448 400
f 400 448 449
f 400 449 401
f 401 449 450
f 401 450 402
f 402 450 451
f 402 451 403
f 403 451 452
f 403 452 404
f 404 452 453
f 404 453 405
f 405 453 454
f 405 454 406
f 406 454 455
f 406 455 407
f 407 455 456
f 407 456 408
f 408 456 457
f 408 457 409
f 409 457 458
f 409 458 410
f 410 458 459
f 410 459 411
f 411 459 460
f 411 460 412
f 412 460 461
f 412 461 413
f 413 461 462
f 413 462 414
f 414 462 463
f 414 463 415
f 415 463 464
f 415 464 416
f 416 464 465
f 416 465 417
f 417 465 466
f 417 466 418
f 418 466 467
f 418 467 419
f 419 467 468
f 419 468 420
f 420 468 469
f 420 469 421
f 421 469 470
f 421 470 422
f 422 470 471
f 422 471 423
f 423 471 472
f 423 472 424
f 424 472 473
f 424 473 425
f 425 473 474
f 425 474 426
f 426 474 475
f 426 475 427
f 427 475 476
f 427 476 428
f 428 476 477
f 428 477 429
f 429 477 478
f 429 478 430
f 430 478 479
f 430 479 431
f 431 479 480
f 431 480 432
f 432 480 481
f 432 481 433
f 433 481 434
f 433 434 386
f 434 482 483
f 434 483 435
f 435 483 484
f 435 484 436
f 436 484 485
f 436 485 437
f 437 485 486
f 437 486 438
f 438 486 487
f 438 487 439
f 439 487 488
f 439 488 440
f 440 488 489
f 440 489 441
f 441 489 490
f 441 490 442
f 442 490 491
f 442 491 443
f 443 491 492
f 443 492 444
f 444 492 493
f 444 493 445
f 445 493 494
f 445 494 446
f 446 494 495
f 446 495 447
f 447 495 496
f 447 496 448
f 448 496 497
f 448 497 449
f 449 497 498
f 449 498 450
f 450 498 499
f 450 499 451
f 451 499 500
f 451 500 452
f 452 500 501
f 452 501 453
f 453 501 502
f 453 502 454
f 454 502 503
f 454 503 455
f 455 503 504
f 455 504 456
f 456 504 505
f 456 505 457
f 457 505 506
f 457 506 458
f 458 506 507
f 458 507 459
f 459 507 508
f 459 508 460
f 460 508 509
f 460 509 461
f 461 509 510
f 461 510 462
f 462 510 511
f 462 511 463
f 463 511 512
f 463 512 464
f 464 512 513
f 464 513 465
f 465 513 514
f 465 514 466
f 466 514 515
f 466 515 467
f 467 515 516
f 467 516 468
f 468 516 517
f 468 517 469
f 469 517 518
f 469 518 470
f 470 518 519
f 470 519 471
f 471 519 520
f 471 520 472
f 472 520 521
f 472 521 473
f 473 521 522
f 473 522 474
f 474 522 523
f 474 523 475
f 475 523 524
f 475 524 476
f 476 524 525
f 476 525 477
f 477 525 526
f 477 526 478
f 478 526 527
f 478 527 479
f 479 527 528
f 479 528 480
f 480 528 529
f 480 529 481
f 481 529 482
f 481 482 434
f 482 530 531
f 482 531 483
f 483 531 532
f 483 532 484
f 484 532 533
f 484 533 485
f 485 533 534
f 485 534 486
f 486 534 535
f 486 535 487
f 487 535 536
f 487 536 488
f 488 536 537
f 488 537 489
f 489 537 538
f 489 538 490
f 490 538 539
f 490 539 491
f 491 539 540
f 491 540 492
f 492 540 541
f 492 541 493
f 493 541 542
f 493 542 494
f 494 542 543
f 494 543 495
f 495 543 544
f 495 544 496
f 496 544 545
f 496 545 497
f 497 545 546
f 497 546 498
f 498 546 547
f 498 547 499
f 499 547 548
f 499 548 500
f 500 548 549
f 500 549 501
f 501 549 550
f 501 550 502
f 502 550 551
f 502 551 503
f 503 551 552
f 503 552 504
f 504 552 553
f 504 553 505
f 505 553 554
f 505 554 506
f 506 554 555
f 506 555 507
f 507 555 556
f 507 556 508
f 508 556 557
f 508 557 509
f 509 557 558
f 509 558 510
f 510 558 559
f 510 559 511
f 511 559 560
f 511 560 512
f 512 560 561
f 512 561 513
f 513 561 562
f 513 562 514
f 514 562 563
f 514 563 515
f 515 563 564
f 515 564 516
f 516 564 565
f 516 565 517
f 517 565 566
f 517 566 518
f 518 566 567
f 518 567 519
f 519 567 568
f 519 568 520
f 520 568 569
f 520 569 521
f 521 569 570
f 521 570 522
f 522 570 571
f 522 571 523
f 523 571 572
f 523 572 524
f 524 572 573
f 524 573 525
f 525 573 574
f 525 574 526
f 526 574 575
f 526 575 527
f 527 575 576
f 527 576 528
f 528 576 577
f 528 577 529
f 529 577 530
f 529 530 482
f 530 578 579
f 530 579 531
f 531 579 580
f 531 580 532
f 532 580 581
f 532 581 533
f 533 581 582
f 533 582 534
f 534 582 583
f 534 583 535
f 535 583 584
f 535 584 536
f 536 584 585
f 536 585 537
f 537 585 586
f 537 586 538
f 538 586 587
f 538 587 539
f 539 587 588
f 539 588 540
f 540 588 589
f 540 589 541
f 541 589 590
f 541 590 542
f 542 590 591
f 542 591 543
f 543 591 592
f 543 592 544
f 544 592 593
f 544 593 545
f 545 593 594
f 545 594 546
f 546 594 595
f 546 595 547
f 547 595 596
f 547 596 548
f 548 596 597
f 548 597 549
f 549 597 598
f 549 598 550
f 550 598 599
f 550 599 551
f 551 599 600
f 551 600 552
f 552 600 601
f 552 601 553
f 553 601 602
f 553 602 554
f 554 602 603
f 554 603 555
f 555 603 604
f 555 604 556
f 556 604 605
f 556 605 557
f 557 605 606
f 557 606 558
f 558 606 607
f 558 607 559
f 559 607 608
f 559 608 560
f 560 608 609
f 560 609 561
f 561 609 610
f 561 610 562
f 562 610 611
f 562 611 563
f 563 611 612
f 563 612 564
f 564 612 613
f 564 613 565
f 565 613 614
f 565 614 566
f 566 614 615
f 566 615 567
f 567 615 616
f 567 616 568
f 568 616 617
f 568 617 569
f 569 617 618
f 569 618 570
f 570 618 619
f 570 619 571
f 571 619 620
f 571 620 572
f 572 620 621
f 572 621 573
f 573 621 622
f 573 622 574
f 574 622 623
f 574 623 575
f 575 623 624
f 575 624 576
f 576 624 625
f 576 625 577
f 577 625 578
f 577 578 530
f 578 626 627
f 578 627 579
f 579 627 628
f 579 628 580
f 580 628 629
f 580 629 581
f 581 629 630
f 581 630 582
f 582 630 631
f 582 631 583
f 583 631 632
f 583 632 584
f 584 632 633
f 584 633 585
f 585 633 634
f 585 634 586
f 586 634 635
f 586 635 587
f 587 635 636
f 587 636 588
f 588 636 637
f 588 637 589
f 589 637 638
f 589 638 590
f 590 638 639
f 590 639 591
f 591 639 640
f 591 640 592
f 592 640 641
f 592 641 593
f 593 641 642
f 593 642 594
f 594 642 643
f 594 643 595
f 595 643 644
f 595 644 596
f 596 644 645
f 596 645 597
f 597 645 646
f 597 646 598
f 598 646 647
f 598 647 599
f 599 647 648
f 599 648 600
f 600 648 649
f 600 649 601
f 601 649 650
f 601 650 602
f 602 650 651
f 602 651 603
f 603 651 652
f 603 652 604
f 604 652 653
f 604 653 605
f 605 653 654
f 605 654 606
f 606 654 655
f 606 655 607
f 607 655 656
f 607 656 608
f 608 656 657
f 608 657 609
f 609 657 658
f 609 658 610
f 610 658 659
f 610 659 611
f 611 659 660
f 611 660 612
f 612 660 661
f 612 661 613
f 613 661 662
f 613 662 614
f 614 662 663
f 614 663 615
f 615 663 664
f 615 664 616
f 616 664 665
f 616 665 617
f 617 665 666
f 617 666 618
f 618 666 667
f 618 667 619
f 619 667 668
f 619 668 620
f 620 668 669
f 620 669 621
f 621 669 670
f 621 670 622
f 622 670 671
f 622 671 623
f 623 671 672
f 623 672 624
f 624 672 673
f 624 673 625
f 625 673 626
f 625 626 578
f 626 674 675
f 626 675 627
f 627 675 676
f 627 676 628
f 628 676 677
f 628 677 629
f 629 677 678
f 629 678 630
f 630 678 679
f 630 679 631
f 631 679 680
f 631 680 632
f 632 680 681
f 632 681 633
f 633 681 682
f 633 682 634
f 634 682 683
f 634 683 635
f 635 683 684
f 635 684 636
f 636 684 685
f 636 685 637
f 637 685 686
f 637 686 638
f 638 686 687
f 638 687 639
f 639 687 688
f 639 688 640
f 640 688 689
f 640 689 641
f 641 689 690
f 641 690 642
f 642 690 691
f 642 691 643
f 643 691 692
f 643 692 644
f 644 692 693
f 644 693 645
f 645 693 694
f 645 694 646
f 646 694 695
f 646 695 647
f 647 695 696
f 647 696 648
f 648 696 697
f 648 697 649
f 649 697 698
f 649 698 650
f 650 698 699
f 650 699 651
f 651 699 700
f 651 700 652
f 652 700 701
f 652 701 653
f 653 701 702
f 653 702 654
f 654 702 703
f 654 703 655
f 655 703 704
f 655 704 656
f 656 704 705
f 656 705 657
f 657 705 706
f 657 706 658
f 658 706 707
f 658 707 659
f 659 707 708
f 659 708 660
f 660 708 709
f 660 709 661
f 661 709 710
f 661 710 662
f 662 710 711
f 662 711 663
f 663 711 712
f 663 712 664
f 664 712 713
f 664 713 665
f 665 713 714
f 665 714 666
f 666 714 715
f 666 715 667
f 667 715 716
f 667 716 668
f 668 716 717
f 668 717 669
f 669 717 718
f 669 718 670
f 670 718 719
f 670 719 671
f 671 719 720
f 671 720 672
f 672 720 721
f 672 721 673
f 673 721 674
f 673 674 626
f 674 722 723
f 674 723 675
f 675 723 724
f 675 724 676
f 676 724 725
f 676 725 677
f 677 725 726
f 677 726 678
f 678 726 727
f 678 727 679
f 679 727 728
f 679 728 680
f 680 728 729
f 680 729 681
f 681 729 730
f 681 730 682
f 682 730 731
f 682 731 683
f 683 731 732
f 683 732 684
f 684 732 733
f 684 733 685
f 685 733 734
f 685 734 686
f 686 734 735
f 686 735 687
f 687 735 736
f 687 736 688
f 688 736 737
f 688 737 689
f 689 737 738
f 689 738 690
f 690 738 739
f 690 739 691
f 691 739 740
f 691 740 692
f 692 740 741
f 692 741 693
f 693 741 742
f 693 742 694
f 694 742 743
f 694 743 695
f 695 743 744
f 695 744 696
f 696 744 745
f 696 745 697
f 697 745 746
f 697 746 698
f 698 746 747
f 698 747 699
f 699 747 748
f 699 748 700
f 700 748 749
f 700 749 701
f 701 749 750
f 701 750 702
f 702 750 751
f 702 751 703
f 703 751 752
f 703 752 704
f 704 752 753
f 704 753 705
f 705 753 754
f 705 754 706
f 706 754 755
f 706 755 707
f 707 755 756
f 707 756 708
f 708 756 757
f 708 757 709
f 709 757 758
f 709 758 710
f 710 758 759
f 710 759 711
f 711 759 760
f 711 760 712
f 712 760 761
f 712 761 713
f 713 761 762
f 713 762 714
f 714 762 763
f 714 763 715
f 715 763 764
f 715 764 716
f 716 764 765
f 716 765 717
f 717 765 766
f 717 766 718
f 718 766 767
f 718 767 719
f 719 767 768
f 719 768 720
f 720 768 769
f 720 769 721
f 721 769 722
f 721 722 674
f 722 770 771
f 722 771 723
f 723 771 772
f 723 772 724
f 724 772 773
f 724 773 725
f 725 773 774
f 725 774 726
f 726 774 775
f 726 775 727
f 727 775 776
f 727 776 728
f 728 776 777
f 728 777 729
f 729 777 778
f 729 778 730
f 730 778 779
f 730 779 731
f 731 779 780
f 731 780 732
f 732 780 781
f 732 781 733
f 733 781 782
f 733 782 734
f 734 782 783
f 734 783 735
f 735 783 784
f 735 784 736
f 736 784 785
f 736 785 737
f 737 785 786
f 737 786 738
f 738 786 787
f 738 787 739
f 739 787 788
f 739 788 740
f 740 788 789
f 740 789 741
f 741 789 790
f 741 790 742
f 742 790 791
f 742 791 743
f 743 791 792
f 743 792 744
f 744 792 793
f 744 793 745
f 745 793 794
f 745 794 746
f 746 794 795
f 746 795 747
f 747 795 796
f 747 796 748
f 748 796 797
f 748 797 749
f 749 797 798
f 749 798 750
f 750 798 799
f 750 799 751
f 751 799 800
f 751 800 752
f 752 800 801
f 752 801 753
f 753 801 802
f 753 802 754
f 754 802 803
f 754 803 755
f 755 803 804
f 755 804 756
f 756 804 805
f 756 805 757
f 757 805 806
f 757 806 758
f 758 806 807
f 758 807 759
f 759 807 808
f 759 808 760
f 760 808 809
f 760 809 761
f 761 809 810
f 761 810 762
f 762 810 811
f 762 811 763
f 763 811 812
f 763 812 764
f 764 812 813
f 764 813 765
f 765 813 814
f 765 814 766
f 766 814 815
f 766 815 767
f 767 815 816
f 767 816 768
f 768 816 817
f 768 817 769
f 769 817 770
f 769 770 722
f 770 818 819
f 770 819 771
f 771 819 820
f 771 820 772
f 772 820 821
f 772 821 773
f 773 821 822
f 773 822 774
f 774 822 823
f 774 823 775
f 775 823 824
f 775 824 776
f 776 824 825
f 776 825 777
f 777 825 826
f 777 826 778
f 778 826 827
f 778 827 779
f 779 827 828
f 779 828 780
f 780 828 829
f 780 829 781
f 781 829 830
f 781 830 782
f 782 830 831
f 782 831 783
f 783 831 832
f 783 832 784
f 784 832 833
f 784 833 785
f 785 833 834
f 785 834 786
f 786 834 835
f 786 835 787
f 787 835 836
f 787 836 788
f 788 836 837
f 788 837 789
f 789 837 838
f 789 838 790
f 790 838 839
f 790 839 791
f 791 839 840
f 791 840 792
f 792 840 841
f 792 841 793
f 793 841 842
f 793 842 794
f 794 842 843
f 794 843 795
f 795 843 844
f 795 844 796
f 796 844 845
f 796 845 797
f 797 845 846
f 797 846 798
f 798 846 847
f 798 847 799
f 799 847 848
f 799 848 800
f 800 848 849
f 800 849 801
f 801 849 850
f 801 850 802
f 802 850 851
f 802 851 803
f 803 851 852
f 803 852 804
f 804 852 853
f 804 853 805
f 805 853 854
f 805 854 806
f 806 854 855
f 806 855 807
f 807 855 856
f 807 856 808
f 808 856 857
f 808 857 809
f 809 857 858
f 809 858 810
f 810 858 859
f 810 859 811
f 811 859 860
f 811 860 812
f 812 860 861
f 812 861 813
f 813 861 862
f 813 862 814
f 814 862 863
f 814 863 815
f 815 863 864
f 815 864 816
f 816 864 865
f 816 865 817
f 817 865 818
f 817 818 770
f 818 866 867
f 818 867 819
f 819 867 868
f 819 868 820
f 820 868 869
f 820 869 821
f 821 869 870
f 821 870 822
f 822 870 871
f 822 871 823
f 823 871 872
f 823 872 824
f 824 872 873
f 824 873 825
f 825 873 874
f 825 874 826
f 826 874 875
f 826 875 827
f 827 875 876
f 827 876 828
f 828 876 877
f 828 877 829
f 829 877 878
f 829 878 830
f 830 878 879
f 830 879 831
f 831 879 880
f 831 880 832
f 832 880 881
f 832 881 833
f 833 881 882
f 833 882 834
f 834 882 883
f 834 883 835
f 835 883 884
f 835 884 836
f 836 884 885
f 836 885 837
f 837 885 886
f 837 886 838
f 838 886 887
f 838 887 839
f 839 887 888
f 839 888 840
f 840 888 889
f 840 889 841
f 841 889 890
f 841 890 842
f 842 890 891
f 842 891 843
f 843 891 892
f 843 892 844
f 844 892 893
f 844 893 845
f 845 893 894
f 845 894 846
f 846 894 895
f 846 895 847
f 847 895 896
f 847 896 848
f 848 896 897
f 848 897 849
f 849 897 898
f 849 898 850
f 850 898 899
f 850 899 851
f 851 899 900
f 851 900 852
f 852 900 901
f 852 901 853
f 853 901 902
f 853 902 854
f 854 902 903
f 854 903 855
f 855 903 904
f 855 904 856
f 856 904 905
f 856 905 857
f 857 905 906
f 857 906 858
f 858 906 907
f 858 907 859
f 859 907 908
f 859 908 860
f 860 908 909
f 860 909 861
f 861 909 910
f 861 910 862
f 862 910 911
f 862 911 863
f 863 911 912
f 863 912 864
f 864 912 913
f 864 913 865
f 865 913 866
f 865 866 818
f 866 914 915
f 866 915 867
f 867 915 916
f 867 916 868
f 868 916 917
f 868 917 869
f 869 917 918
f 869 918 870
f 870 918 919
f 870 919 871
f 871 919 920
f 871 920 872
f 872 920 921
f 872 921 873
f 873 921 922
f 873 922 874
f 874 922 923
f 874 923 875
f 875 923 924
f 875 924 876
f 876 924 925
f 876 925 877
f 877 925 926
f 877 926 878
f 878 926 927
f 878 927 879
f 879 927 928
f 879 928 880
f 880 928 929
f 880 929 881
f 881 929 930
f 881 930 882
f 882 930 931
f 882 931 883
f 883 931 932
f 883 932 884
f 884 932 933
f 884 933 885
f 885 933 934
f 885 934 886
f 886 934 935
f 886 935 887
f 887 935 936
f 887 936 888
f 888 936 937
f 888 937 889
f 889 937 938
f 889 938 890
f 890 938 939
f 890 939 891
f 891 939 940
f 891 940 892
f 892 940 941
f 892 941 893
f 893 941 942
f 893 942 894
f 894 942 943
f 894 943 895
f 895 943 944
f 895 944 896
f 896 944 945
f 896 945 897
f 897 945 946
f 897 946 898
f 898 946 947
f 898 947 899
f 899 947 948
f 899 948 900
f 900 948 949
f 900 949 901
f 901 949 950
f 901 950 902
f 902 950 951
f 902 951 903
f 903 951 952
f 903 952 904
f 904 952 953
f 904 953 905
f 905 953 954
f 905 954 906
f 906 954 955
f 906 955 907
f 907 955 956
f 907 956 908
f 908 956 957
f 908 957 909
f 909 957 958
f 909 958 910
f 910 958 959
f 910 959 911
f 911 959 960
f 911 960 912
f 912 960 961
f 912 961 913
f 913 961 914
f 913 914 866
f 914 962 963
f 914 963 915
f 915 963 964
f 915 964 916
f 916 964 965
f 916 965 917
f 917 965 966
f 917 966 918
f 918 966 967
f 918 967 919
f 919 967 968
f 919 968 920
f 920 968 969
f 920 969 921
f 921 969 970
f 921 970 922
f 922 970 971
f 922 971 923
f 923 971 972
f 923 972 924
f 924 972 973
f 924 973 925
f 925 973 974
f 925 974 926
f 926 974 975
f 926 975 927
f 927 975 976
f 927 976 928
f 928 976 977
f 928 977 929
f 929 977 978
f 929 978 930
f 930 978 979
f 930 979 931
f 931 979 980
f 931 980 932
f 932 980 981
f 932 981 933
f 933 981 982
f 933 982 934
f 934 982 983
f 934 983 935
f 935 983 984
f 935 984 936
f 936 984 985
f 936 985 937
f 937 985 986
f 937 986 938
f 938 986 987
f 938 987 939
f 939 987 988
f 939 988 940
f 940 988 989
f 940 989 941
f 941 989 990
f 941 990 942
f 942 990 991
f 942 991 943
f 943 991 992
f 943 992 944
f 944 992 993
f 944 993 945
f 945 993 994
f 945 994 946
f 946 994 995
f 946 995 947
f 947 995 996
f 947 996 948
f 948 996 997
f 948 997 949
f 949 997 998
f 949 998 950
f 950 998 999
f 950 999 951
f 951 999 1000
f 951 1000 952
f 952 1000 1001
f 952 1001 953
f 953 1001 1002
f 953 1002 954
f 954 1002 1003
f 954 1003 955
f 955 1003 1004
f 955 1004 956
f 956 1004 1005
f 956 1005 957
f 957 1005 1006
f 957 1006 958
f 958 1006 1007
f 958 1007 959
f 959 1007 1008
f 959 1008 960
f 960 1008 1009
f 960 1009 961
f 961 1009 962
f 961 962 914
f 962 1010 1011
f 962 1011 963
f 963 1011 1012
f 963 1012 964
f 964 1012 1013
f 964 1013 965
f 965 1013 1014
f 965 1014 966
f 966 1014 1015
f 966 1015 967
f 967 1015 1016
f 967 1016 968
f 968 1016 1017
f 968 1017 969
f 969 1017 1018
f 969 1018 970
f 970 1018 1019
f 970 1019 971
f 971 1019 1020
f 971 1020 972
f 972 1020 1021
f 972 1021 973
f 973 1021 1022
f 973 1022 974
f 974 1022 1023
f 974 1023 975
f 975 1023 1024
f 975 1024 976
f 976 1024 1025
f 976 1025 977
f 977 1025 1026
f 977 1026 978
f 978 1026 1027
f 978 1027 979
f 979 1027 1028
f 979 1028 980
f 980 1028 1029
f 980 1029 981
f 981 1029 1030
f 981 1030 982
f 982 1030 1031
f 982 1031 983
f 983 1031 1032
f 983 1032 984
f 984 1032 1033
f 984 1033 985
f 985 1033 1034
f 985 1034 986
f 986 1034 1035
f 986 1035 987
f 987 1035 1036
f 987 1036 988
f 988 1036 1037
f 988 1037 989
f 989 1037 1038
f 989 1038 990
f 990 1038 1039
f 990 1039 991
f 991 1039 1040
f 991 1040 992
f 992 1040 1041
f 992 1041 993
f 993 1041 1042
f 993 1042 994
f 994 1042 1043
f 994 1043 995
f 995 1043 1044
f 995 1044 996
f 996 1044 1045
f 996 1045 997
f 997 1045 1046
f 997 1046 998
f 998 1046 1047
f 998 1047 999
f 999 1047 1048
f 999 1048 1000
f 1000 1048 1049
f 1000 1049 1001
f 1001 1049 1050
f 1001 1050 1002
f 1002 1050 1051
f 1002 1051 1003
f 1003 1051 1052
f 1003 1052 1004
f 1004 1052 1053
f 1004 1053 1005
f 1005 1053 1054
f 1005 1054 1006
f 1006 1054 1055
f 1006 1055 1007
f 1007 1055 1056
f 1007 1056 1008
f 1008 1056 1057
f 1008 1057 1009
f 1009 1057 1010
f 1009 1010 962
f 1010 1058 1059
f 1010 1059 1011
f 1011 1059 1060
f 1011 1060 1012
f 1012 1060 1061
f 1012 1061 1013
f 1013 1061 1062
f 1013 1062 1014
f 1014 1062 1063
f 1014 1063 1015
f 1015 1063 1064
f 1015 1064 1016
f 1016 1064 1065
f 1016 1065 1017
f 1017 1065 1066
f 1017 1066 1018
f 1018 1066 1067
f 1018 1067 1019
f 1019 1067 1068
f 1019 1068 1020
f 1020 1068 1069
f 1020 1069 1021
f 1021 1069 1070
f 1021 1070 1022
f 1022 1070 1071
f 1022 1071 1023
f 1023 1071 1072
f 1023 1072 1024
f 1024 1072 1073
f 1024 1073 1025
f 1025 1073 1074
f 1025 1074 1026
f 1026 1074 1075
f 1026 1075 1027
f 1027 1075 1076
f 1027 1076 1028
f 1028 1076 1077
f 1028 1077 1029
f 1029 1077 1078
f 1029 1078 1030
f 1030 1078 1079
f 1030 1079 1031
f 1031 1079 1080
f 1031 1080 1032
f 1032 1080 1081
f 1032 1081 1033
f 1033 1081 1082
f 1033 1082 1034
f 1034 1082 1083
f 1034 1083 1035
f 1035 1083 1084
f 1035 1084 1036
f 1036 1084 1085
f 1036 1085 1037
f 1037 1085 1086
f 1037 1086 1038
f 1038 1086 1087
f 1038 1087 1039
f 1039 1087 1088
f 1039 1088 1040
f 1040 1088 1089
f 1040 1089 1041
f 1041 1089 1090
f 1041 1090 1042
f 1042 1090 1091
f 1042 1091 1043
f 1043 1091 1092
f 1043 1092 1044
f 1044 1092 1093
f 1044 1093 1045
f 1045 1093 1094
f 1045 1094 1046
f 1046 1094 1095
f 1046 1095 1047
f 1047 1095 1096
f 1047 1096 1048
f 1048 1096 1097
f 1048 1097 1049
f 1049 1097 1098
f 1049 1098 1050
f 1050 1098 1099
f 1050 1099 1051
f 1051 1099 1100
f 1051 1100 1052
f 1052 1100 1101
f 1052 1101 1053
f 1053 1101 1102
f 1053 1102 1054
f 1054 1102 1103
f 1054 1103 1055
f 1055 1103 1104
f 1055 1104 1056
f 1056 1104 1105
f 1056 1105 1057
f 1057 1105 1058
f 1057 1058 1010
f 1106 1059 1058
f 1106 1060 1059
f 1106 1061 1060
f 1106 1062 1061
f 1106 1063 1062
f 1106 1064 1063
f 1106 1065 1064
f 1106 1066 1065
f 1106 1067 1066
f 1106 1068 1067
f 1106 1069 1068
f 1106 1070 1069
f 1106 1071 1070
f 1106 1072 1071
f 1106 1073 1072
f 1106 1074 1073
f 1106 1075 1074
f 1106 1076 1075
f 1106 1077 1076
f 1106 1078 1077
f 1106 1079 1078
f 1106 1080 1079
f 1106 1081 1080
f 1106 1082 1081
f 1106 1083 1082
f 1106 1084 1083
f 1106 1085 1084
f 1106 1086 1085
f 1106 1087 1086
f 1106 1088 1087
f 1106 1089 1088
f 1106 1090 1089
f 1106 1091 1090
f 1106 1092 1091
f 1106 1093 1092
f 1106 1094 1093
f 1106 1095 1094
f 1106 1096 1095
f 1106 1097 1096
f 1106 1098 1097
f 1106 1099 1098
f 1106 1100 1099
f 1106 1101 1100
f 1106 1102 1101
f 1106 1103 1102
f 1106 1104 1103
f 1106 1105 1104
f 1106 1058 1105
